<mxfile host="app.diagrams.net" modified="2021-03-04T14:37:41.271Z" agent="5.0 (Macintosh)" etag="yhFsOLmnfcLrfIa9LDvf" version="14.4.4" type="github">
  <diagram id="R2lEEEUBdFMjLlhIrx00" name="Page-1">
    <mxGraphModel dx="2931" dy="1641" grid="1" gridSize="10" guides="1" tooltips="1" connect="1" arrows="1" fold="1" page="1" pageScale="1" pageWidth="850" pageHeight="1100" math="0" shadow="0" extFonts="Permanent Marker^https://fonts.googleapis.com/css?family=Permanent+Marker">
      <root>
        <mxCell id="0" />
        <mxCell id="1" parent="0" />
        <mxCell id="-PqnpieTWziDfPvVV64C-30" value="[dbo].[Court]" style="shape=table;startSize=30;container=1;collapsible=1;childLayout=tableLayout;fixedRows=1;rowLines=0;fontStyle=1;align=center;resizeLast=1;" vertex="1" parent="1">
          <mxGeometry x="974" y="420" width="310" height="1000" as="geometry" />
        </mxCell>
        <mxCell id="-PqnpieTWziDfPvVV64C-31" value="" style="shape=partialRectangle;collapsible=0;dropTarget=0;pointerEvents=0;fillColor=none;points=[[0,0.5],[1,0.5]];portConstraint=eastwest;top=0;left=0;right=0;bottom=0;" vertex="1" parent="-PqnpieTWziDfPvVV64C-30">
          <mxGeometry y="30" width="310" height="30" as="geometry" />
        </mxCell>
        <mxCell id="-PqnpieTWziDfPvVV64C-32" value="" style="shape=partialRectangle;overflow=hidden;connectable=0;fillColor=none;top=0;left=0;bottom=0;right=0;" vertex="1" parent="-PqnpieTWziDfPvVV64C-31">
          <mxGeometry width="30" height="30" as="geometry" />
        </mxCell>
        <mxCell id="-PqnpieTWziDfPvVV64C-33" value="[CourtNo] [int] NOT NULL" style="shape=partialRectangle;overflow=hidden;connectable=0;fillColor=none;top=0;left=0;bottom=0;right=0;align=left;spacingLeft=6;" vertex="1" parent="-PqnpieTWziDfPvVV64C-31">
          <mxGeometry x="30" width="280" height="30" as="geometry" />
        </mxCell>
        <mxCell id="-PqnpieTWziDfPvVV64C-34" value="" style="shape=partialRectangle;collapsible=0;dropTarget=0;pointerEvents=0;fillColor=none;points=[[0,0.5],[1,0.5]];portConstraint=eastwest;top=0;left=0;right=0;bottom=0;" vertex="1" parent="-PqnpieTWziDfPvVV64C-30">
          <mxGeometry y="60" width="310" height="30" as="geometry" />
        </mxCell>
        <mxCell id="-PqnpieTWziDfPvVV64C-35" value="" style="shape=partialRectangle;overflow=hidden;connectable=0;fillColor=none;top=0;left=0;bottom=0;right=0;" vertex="1" parent="-PqnpieTWziDfPvVV64C-34">
          <mxGeometry width="30" height="30" as="geometry" />
        </mxCell>
        <mxCell id="-PqnpieTWziDfPvVV64C-36" value="[ProvinceNo] [int] NOT NULL" style="shape=partialRectangle;overflow=hidden;connectable=0;fillColor=none;top=0;left=0;bottom=0;right=0;align=left;spacingLeft=6;" vertex="1" parent="-PqnpieTWziDfPvVV64C-34">
          <mxGeometry x="30" width="280" height="30" as="geometry" />
        </mxCell>
        <mxCell id="-PqnpieTWziDfPvVV64C-37" value="" style="shape=partialRectangle;collapsible=0;dropTarget=0;pointerEvents=0;fillColor=none;points=[[0,0.5],[1,0.5]];portConstraint=eastwest;top=0;left=0;right=0;bottom=0;" vertex="1" parent="-PqnpieTWziDfPvVV64C-30">
          <mxGeometry y="90" width="310" height="30" as="geometry" />
        </mxCell>
        <mxCell id="-PqnpieTWziDfPvVV64C-38" value="" style="shape=partialRectangle;overflow=hidden;connectable=0;fillColor=none;top=0;left=0;bottom=0;right=0;" vertex="1" parent="-PqnpieTWziDfPvVV64C-37">
          <mxGeometry width="30" height="30" as="geometry" />
        </mxCell>
        <mxCell id="-PqnpieTWziDfPvVV64C-39" value="[Description_E] [varchar](120) NOT NULL" style="shape=partialRectangle;overflow=hidden;connectable=0;fillColor=none;top=0;left=0;bottom=0;right=0;align=left;spacingLeft=6;" vertex="1" parent="-PqnpieTWziDfPvVV64C-37">
          <mxGeometry x="30" width="280" height="30" as="geometry" />
        </mxCell>
        <mxCell id="-PqnpieTWziDfPvVV64C-40" value="" style="shape=partialRectangle;collapsible=0;dropTarget=0;pointerEvents=0;fillColor=none;points=[[0,0.5],[1,0.5]];portConstraint=eastwest;top=0;left=0;right=0;bottom=0;" vertex="1" parent="-PqnpieTWziDfPvVV64C-30">
          <mxGeometry y="120" width="310" height="30" as="geometry" />
        </mxCell>
        <mxCell id="-PqnpieTWziDfPvVV64C-41" value="" style="shape=partialRectangle;overflow=hidden;connectable=0;fillColor=none;top=0;left=0;bottom=0;right=0;" vertex="1" parent="-PqnpieTWziDfPvVV64C-40">
          <mxGeometry width="30" height="30" as="geometry" />
        </mxCell>
        <mxCell id="-PqnpieTWziDfPvVV64C-42" value="[Description_F] [varchar](120) NOT NULL" style="shape=partialRectangle;overflow=hidden;connectable=0;fillColor=none;top=0;left=0;bottom=0;right=0;align=left;spacingLeft=6;" vertex="1" parent="-PqnpieTWziDfPvVV64C-40">
          <mxGeometry x="30" width="280" height="30" as="geometry" />
        </mxCell>
        <mxCell id="-PqnpieTWziDfPvVV64C-43" value="" style="shape=partialRectangle;collapsible=0;dropTarget=0;pointerEvents=0;fillColor=none;points=[[0,0.5],[1,0.5]];portConstraint=eastwest;top=0;left=0;right=0;bottom=0;" vertex="1" parent="-PqnpieTWziDfPvVV64C-30">
          <mxGeometry y="150" width="310" height="30" as="geometry" />
        </mxCell>
        <mxCell id="-PqnpieTWziDfPvVV64C-44" value="" style="shape=partialRectangle;overflow=hidden;connectable=0;fillColor=none;top=0;left=0;bottom=0;right=0;" vertex="1" parent="-PqnpieTWziDfPvVV64C-43">
          <mxGeometry width="30" height="30" as="geometry" />
        </mxCell>
        <mxCell id="-PqnpieTWziDfPvVV64C-45" value="[ContactName] [varchar](80) NULL" style="shape=partialRectangle;overflow=hidden;connectable=0;fillColor=none;top=0;left=0;bottom=0;right=0;align=left;spacingLeft=6;" vertex="1" parent="-PqnpieTWziDfPvVV64C-43">
          <mxGeometry x="30" width="280" height="30" as="geometry" />
        </mxCell>
        <mxCell id="-PqnpieTWziDfPvVV64C-46" value="" style="shape=partialRectangle;collapsible=0;dropTarget=0;pointerEvents=0;fillColor=none;points=[[0,0.5],[1,0.5]];portConstraint=eastwest;top=0;left=0;right=0;bottom=0;" vertex="1" parent="-PqnpieTWziDfPvVV64C-30">
          <mxGeometry y="180" width="310" height="30" as="geometry" />
        </mxCell>
        <mxCell id="-PqnpieTWziDfPvVV64C-47" value="" style="shape=partialRectangle;overflow=hidden;connectable=0;fillColor=none;top=0;left=0;bottom=0;right=0;" vertex="1" parent="-PqnpieTWziDfPvVV64C-46">
          <mxGeometry width="30" height="30" as="geometry" />
        </mxCell>
        <mxCell id="-PqnpieTWziDfPvVV64C-48" value="[AddressLine1] [varchar](40) NULL" style="shape=partialRectangle;overflow=hidden;connectable=0;fillColor=none;top=0;left=0;bottom=0;right=0;align=left;spacingLeft=6;" vertex="1" parent="-PqnpieTWziDfPvVV64C-46">
          <mxGeometry x="30" width="280" height="30" as="geometry" />
        </mxCell>
        <mxCell id="-PqnpieTWziDfPvVV64C-49" value="" style="shape=partialRectangle;collapsible=0;dropTarget=0;pointerEvents=0;fillColor=none;points=[[0,0.5],[1,0.5]];portConstraint=eastwest;top=0;left=0;right=0;bottom=0;" vertex="1" parent="-PqnpieTWziDfPvVV64C-30">
          <mxGeometry y="210" width="310" height="30" as="geometry" />
        </mxCell>
        <mxCell id="-PqnpieTWziDfPvVV64C-50" value="" style="shape=partialRectangle;overflow=hidden;connectable=0;fillColor=none;top=0;left=0;bottom=0;right=0;" vertex="1" parent="-PqnpieTWziDfPvVV64C-49">
          <mxGeometry width="30" height="30" as="geometry" />
        </mxCell>
        <mxCell id="-PqnpieTWziDfPvVV64C-51" value="[AddressLine2] [varchar](40) NULL" style="shape=partialRectangle;overflow=hidden;connectable=0;fillColor=none;top=0;left=0;bottom=0;right=0;align=left;spacingLeft=6;" vertex="1" parent="-PqnpieTWziDfPvVV64C-49">
          <mxGeometry x="30" width="280" height="30" as="geometry" />
        </mxCell>
        <mxCell id="-PqnpieTWziDfPvVV64C-52" value="" style="shape=partialRectangle;collapsible=0;dropTarget=0;pointerEvents=0;fillColor=none;points=[[0,0.5],[1,0.5]];portConstraint=eastwest;top=0;left=0;right=0;bottom=0;" vertex="1" parent="-PqnpieTWziDfPvVV64C-30">
          <mxGeometry y="240" width="310" height="30" as="geometry" />
        </mxCell>
        <mxCell id="-PqnpieTWziDfPvVV64C-53" value="" style="shape=partialRectangle;overflow=hidden;connectable=0;fillColor=none;top=0;left=0;bottom=0;right=0;" vertex="1" parent="-PqnpieTWziDfPvVV64C-52">
          <mxGeometry width="30" height="30" as="geometry" />
        </mxCell>
        <mxCell id="-PqnpieTWziDfPvVV64C-54" value="[AddressLine3] [varchar](40) NULL" style="shape=partialRectangle;overflow=hidden;connectable=0;fillColor=none;top=0;left=0;bottom=0;right=0;align=left;spacingLeft=6;" vertex="1" parent="-PqnpieTWziDfPvVV64C-52">
          <mxGeometry x="30" width="280" height="30" as="geometry" />
        </mxCell>
        <mxCell id="-PqnpieTWziDfPvVV64C-55" value="" style="shape=partialRectangle;collapsible=0;dropTarget=0;pointerEvents=0;fillColor=none;points=[[0,0.5],[1,0.5]];portConstraint=eastwest;top=0;left=0;right=0;bottom=0;" vertex="1" parent="-PqnpieTWziDfPvVV64C-30">
          <mxGeometry y="270" width="310" height="30" as="geometry" />
        </mxCell>
        <mxCell id="-PqnpieTWziDfPvVV64C-56" value="" style="shape=partialRectangle;overflow=hidden;connectable=0;fillColor=none;top=0;left=0;bottom=0;right=0;" vertex="1" parent="-PqnpieTWziDfPvVV64C-55">
          <mxGeometry width="30" height="30" as="geometry" />
        </mxCell>
        <mxCell id="-PqnpieTWziDfPvVV64C-57" value="[AddressLine4] [varchar](40) NULL" style="shape=partialRectangle;overflow=hidden;connectable=0;fillColor=none;top=0;left=0;bottom=0;right=0;align=left;spacingLeft=6;" vertex="1" parent="-PqnpieTWziDfPvVV64C-55">
          <mxGeometry x="30" width="280" height="30" as="geometry" />
        </mxCell>
        <mxCell id="-PqnpieTWziDfPvVV64C-58" value="" style="shape=partialRectangle;collapsible=0;dropTarget=0;pointerEvents=0;fillColor=none;points=[[0,0.5],[1,0.5]];portConstraint=eastwest;top=0;left=0;right=0;bottom=0;" vertex="1" parent="-PqnpieTWziDfPvVV64C-30">
          <mxGeometry y="300" width="310" height="30" as="geometry" />
        </mxCell>
        <mxCell id="-PqnpieTWziDfPvVV64C-59" value="" style="shape=partialRectangle;overflow=hidden;connectable=0;fillColor=none;top=0;left=0;bottom=0;right=0;" vertex="1" parent="-PqnpieTWziDfPvVV64C-58">
          <mxGeometry width="30" height="30" as="geometry" />
        </mxCell>
        <mxCell id="-PqnpieTWziDfPvVV64C-60" value="[AddressLine5] [varchar](40) NULL" style="shape=partialRectangle;overflow=hidden;connectable=0;fillColor=none;top=0;left=0;bottom=0;right=0;align=left;spacingLeft=6;" vertex="1" parent="-PqnpieTWziDfPvVV64C-58">
          <mxGeometry x="30" width="280" height="30" as="geometry" />
        </mxCell>
        <mxCell id="-PqnpieTWziDfPvVV64C-61" value="" style="shape=partialRectangle;collapsible=0;dropTarget=0;pointerEvents=0;fillColor=none;points=[[0,0.5],[1,0.5]];portConstraint=eastwest;top=0;left=0;right=0;bottom=0;" vertex="1" parent="-PqnpieTWziDfPvVV64C-30">
          <mxGeometry y="330" width="310" height="30" as="geometry" />
        </mxCell>
        <mxCell id="-PqnpieTWziDfPvVV64C-62" value="" style="shape=partialRectangle;overflow=hidden;connectable=0;fillColor=none;top=0;left=0;bottom=0;right=0;" vertex="1" parent="-PqnpieTWziDfPvVV64C-61">
          <mxGeometry width="30" height="30" as="geometry" />
        </mxCell>
        <mxCell id="-PqnpieTWziDfPvVV64C-63" value="[CityName] [varchar](40) NOT NULL" style="shape=partialRectangle;overflow=hidden;connectable=0;fillColor=none;top=0;left=0;bottom=0;right=0;align=left;spacingLeft=6;" vertex="1" parent="-PqnpieTWziDfPvVV64C-61">
          <mxGeometry x="30" width="280" height="30" as="geometry" />
        </mxCell>
        <mxCell id="-PqnpieTWziDfPvVV64C-64" value="" style="shape=partialRectangle;collapsible=0;dropTarget=0;pointerEvents=0;fillColor=none;points=[[0,0.5],[1,0.5]];portConstraint=eastwest;top=0;left=0;right=0;bottom=0;" vertex="1" parent="-PqnpieTWziDfPvVV64C-30">
          <mxGeometry y="360" width="310" height="30" as="geometry" />
        </mxCell>
        <mxCell id="-PqnpieTWziDfPvVV64C-65" value="" style="shape=partialRectangle;overflow=hidden;connectable=0;fillColor=none;top=0;left=0;bottom=0;right=0;" vertex="1" parent="-PqnpieTWziDfPvVV64C-64">
          <mxGeometry width="30" height="30" as="geometry" />
        </mxCell>
        <mxCell id="-PqnpieTWziDfPvVV64C-66" value="[PostalCode] [char](6) NOT NULL" style="shape=partialRectangle;overflow=hidden;connectable=0;fillColor=none;top=0;left=0;bottom=0;right=0;align=left;spacingLeft=6;" vertex="1" parent="-PqnpieTWziDfPvVV64C-64">
          <mxGeometry x="30" width="280" height="30" as="geometry" />
        </mxCell>
        <mxCell id="-PqnpieTWziDfPvVV64C-67" value="" style="shape=partialRectangle;collapsible=0;dropTarget=0;pointerEvents=0;fillColor=none;points=[[0,0.5],[1,0.5]];portConstraint=eastwest;top=0;left=0;right=0;bottom=0;" vertex="1" parent="-PqnpieTWziDfPvVV64C-30">
          <mxGeometry y="390" width="310" height="30" as="geometry" />
        </mxCell>
        <mxCell id="-PqnpieTWziDfPvVV64C-68" value="" style="shape=partialRectangle;overflow=hidden;connectable=0;fillColor=none;top=0;left=0;bottom=0;right=0;" vertex="1" parent="-PqnpieTWziDfPvVV64C-67">
          <mxGeometry width="30" height="30" as="geometry" />
        </mxCell>
        <mxCell id="-PqnpieTWziDfPvVV64C-69" value="[PhoneAreaCode] [char](3) NULL" style="shape=partialRectangle;overflow=hidden;connectable=0;fillColor=none;top=0;left=0;bottom=0;right=0;align=left;spacingLeft=6;" vertex="1" parent="-PqnpieTWziDfPvVV64C-67">
          <mxGeometry x="30" width="280" height="30" as="geometry" />
        </mxCell>
        <mxCell id="-PqnpieTWziDfPvVV64C-70" value="" style="shape=partialRectangle;collapsible=0;dropTarget=0;pointerEvents=0;fillColor=none;points=[[0,0.5],[1,0.5]];portConstraint=eastwest;top=0;left=0;right=0;bottom=0;" vertex="1" parent="-PqnpieTWziDfPvVV64C-30">
          <mxGeometry y="420" width="310" height="30" as="geometry" />
        </mxCell>
        <mxCell id="-PqnpieTWziDfPvVV64C-71" value="" style="shape=partialRectangle;overflow=hidden;connectable=0;fillColor=none;top=0;left=0;bottom=0;right=0;" vertex="1" parent="-PqnpieTWziDfPvVV64C-70">
          <mxGeometry width="30" height="30" as="geometry" />
        </mxCell>
        <mxCell id="-PqnpieTWziDfPvVV64C-72" value="[PhoneNumber] [char](8) NULL" style="shape=partialRectangle;overflow=hidden;connectable=0;fillColor=none;top=0;left=0;bottom=0;right=0;align=left;spacingLeft=6;" vertex="1" parent="-PqnpieTWziDfPvVV64C-70">
          <mxGeometry x="30" width="280" height="30" as="geometry" />
        </mxCell>
        <mxCell id="-PqnpieTWziDfPvVV64C-73" value="" style="shape=partialRectangle;collapsible=0;dropTarget=0;pointerEvents=0;fillColor=none;points=[[0,0.5],[1,0.5]];portConstraint=eastwest;top=0;left=0;right=0;bottom=0;" vertex="1" parent="-PqnpieTWziDfPvVV64C-30">
          <mxGeometry y="450" width="310" height="30" as="geometry" />
        </mxCell>
        <mxCell id="-PqnpieTWziDfPvVV64C-74" value="" style="shape=partialRectangle;overflow=hidden;connectable=0;fillColor=none;top=0;left=0;bottom=0;right=0;" vertex="1" parent="-PqnpieTWziDfPvVV64C-73">
          <mxGeometry width="30" height="30" as="geometry" />
        </mxCell>
        <mxCell id="-PqnpieTWziDfPvVV64C-75" value="[PhoneExtension] [char](4) NULL" style="shape=partialRectangle;overflow=hidden;connectable=0;fillColor=none;top=0;left=0;bottom=0;right=0;align=left;spacingLeft=6;" vertex="1" parent="-PqnpieTWziDfPvVV64C-73">
          <mxGeometry x="30" width="280" height="30" as="geometry" />
        </mxCell>
        <mxCell id="-PqnpieTWziDfPvVV64C-76" value="" style="shape=partialRectangle;collapsible=0;dropTarget=0;pointerEvents=0;fillColor=none;points=[[0,0.5],[1,0.5]];portConstraint=eastwest;top=0;left=0;right=0;bottom=0;" vertex="1" parent="-PqnpieTWziDfPvVV64C-30">
          <mxGeometry y="480" width="310" height="30" as="geometry" />
        </mxCell>
        <mxCell id="-PqnpieTWziDfPvVV64C-77" value="" style="shape=partialRectangle;overflow=hidden;connectable=0;fillColor=none;top=0;left=0;bottom=0;right=0;" vertex="1" parent="-PqnpieTWziDfPvVV64C-76">
          <mxGeometry width="30" height="30" as="geometry" />
        </mxCell>
        <mxCell id="-PqnpieTWziDfPvVV64C-78" value="[FaxAreaCode] [char](3) NULL" style="shape=partialRectangle;overflow=hidden;connectable=0;fillColor=none;top=0;left=0;bottom=0;right=0;align=left;spacingLeft=6;" vertex="1" parent="-PqnpieTWziDfPvVV64C-76">
          <mxGeometry x="30" width="280" height="30" as="geometry" />
        </mxCell>
        <mxCell id="-PqnpieTWziDfPvVV64C-79" value="" style="shape=partialRectangle;collapsible=0;dropTarget=0;pointerEvents=0;fillColor=none;points=[[0,0.5],[1,0.5]];portConstraint=eastwest;top=0;left=0;right=0;bottom=0;" vertex="1" parent="-PqnpieTWziDfPvVV64C-30">
          <mxGeometry y="510" width="310" height="30" as="geometry" />
        </mxCell>
        <mxCell id="-PqnpieTWziDfPvVV64C-80" value="" style="shape=partialRectangle;overflow=hidden;connectable=0;fillColor=none;top=0;left=0;bottom=0;right=0;" vertex="1" parent="-PqnpieTWziDfPvVV64C-79">
          <mxGeometry width="30" height="30" as="geometry" />
        </mxCell>
        <mxCell id="-PqnpieTWziDfPvVV64C-81" value="[FaxNumber] [char](8) NULL" style="shape=partialRectangle;overflow=hidden;connectable=0;fillColor=none;top=0;left=0;bottom=0;right=0;align=left;spacingLeft=6;" vertex="1" parent="-PqnpieTWziDfPvVV64C-79">
          <mxGeometry x="30" width="280" height="30" as="geometry" />
        </mxCell>
        <mxCell id="-PqnpieTWziDfPvVV64C-82" value="" style="shape=partialRectangle;collapsible=0;dropTarget=0;pointerEvents=0;fillColor=none;points=[[0,0.5],[1,0.5]];portConstraint=eastwest;top=0;left=0;right=0;bottom=0;" vertex="1" parent="-PqnpieTWziDfPvVV64C-30">
          <mxGeometry y="540" width="310" height="30" as="geometry" />
        </mxCell>
        <mxCell id="-PqnpieTWziDfPvVV64C-83" value="" style="shape=partialRectangle;overflow=hidden;connectable=0;fillColor=none;top=0;left=0;bottom=0;right=0;" vertex="1" parent="-PqnpieTWziDfPvVV64C-82">
          <mxGeometry width="30" height="30" as="geometry" />
        </mxCell>
        <mxCell id="-PqnpieTWziDfPvVV64C-84" value="[LanguageCode] [char](1) NULL" style="shape=partialRectangle;overflow=hidden;connectable=0;fillColor=none;top=0;left=0;bottom=0;right=0;align=left;spacingLeft=6;" vertex="1" parent="-PqnpieTWziDfPvVV64C-82">
          <mxGeometry x="30" width="280" height="30" as="geometry" />
        </mxCell>
        <mxCell id="-PqnpieTWziDfPvVV64C-85" value="" style="shape=partialRectangle;collapsible=0;dropTarget=0;pointerEvents=0;fillColor=none;points=[[0,0.5],[1,0.5]];portConstraint=eastwest;top=0;left=0;right=0;bottom=0;" vertex="1" parent="-PqnpieTWziDfPvVV64C-30">
          <mxGeometry y="570" width="310" height="30" as="geometry" />
        </mxCell>
        <mxCell id="-PqnpieTWziDfPvVV64C-86" value="" style="shape=partialRectangle;overflow=hidden;connectable=0;fillColor=none;top=0;left=0;bottom=0;right=0;" vertex="1" parent="-PqnpieTWziDfPvVV64C-85">
          <mxGeometry width="30" height="30" as="geometry" />
        </mxCell>
        <mxCell id="-PqnpieTWziDfPvVV64C-87" value="[EMail] [varchar](40) NULL" style="shape=partialRectangle;overflow=hidden;connectable=0;fillColor=none;top=0;left=0;bottom=0;right=0;align=left;spacingLeft=6;" vertex="1" parent="-PqnpieTWziDfPvVV64C-85">
          <mxGeometry x="30" width="280" height="30" as="geometry" />
        </mxCell>
        <mxCell id="-PqnpieTWziDfPvVV64C-88" value="" style="shape=partialRectangle;collapsible=0;dropTarget=0;pointerEvents=0;fillColor=none;points=[[0,0.5],[1,0.5]];portConstraint=eastwest;top=0;left=0;right=0;bottom=0;" vertex="1" parent="-PqnpieTWziDfPvVV64C-30">
          <mxGeometry y="600" width="310" height="30" as="geometry" />
        </mxCell>
        <mxCell id="-PqnpieTWziDfPvVV64C-89" value="" style="shape=partialRectangle;overflow=hidden;connectable=0;fillColor=none;top=0;left=0;bottom=0;right=0;" vertex="1" parent="-PqnpieTWziDfPvVV64C-88">
          <mxGeometry width="30" height="30" as="geometry" />
        </mxCell>
        <mxCell id="-PqnpieTWziDfPvVV64C-90" value="[LastRegistrationNumberUsed] [int] NULL" style="shape=partialRectangle;overflow=hidden;connectable=0;fillColor=none;top=0;left=0;bottom=0;right=0;align=left;spacingLeft=6;" vertex="1" parent="-PqnpieTWziDfPvVV64C-88">
          <mxGeometry x="30" width="280" height="30" as="geometry" />
        </mxCell>
        <mxCell id="-PqnpieTWziDfPvVV64C-91" value="" style="shape=partialRectangle;collapsible=0;dropTarget=0;pointerEvents=0;fillColor=none;points=[[0,0.5],[1,0.5]];portConstraint=eastwest;top=0;left=0;right=0;bottom=0;" vertex="1" parent="-PqnpieTWziDfPvVV64C-30">
          <mxGeometry y="630" width="310" height="30" as="geometry" />
        </mxCell>
        <mxCell id="-PqnpieTWziDfPvVV64C-92" value="" style="shape=partialRectangle;overflow=hidden;connectable=0;fillColor=none;top=0;left=0;bottom=0;right=0;" vertex="1" parent="-PqnpieTWziDfPvVV64C-91">
          <mxGeometry width="30" height="30" as="geometry" />
        </mxCell>
        <mxCell id="-PqnpieTWziDfPvVV64C-93" value="[EffectiveStart] [datetime] NOT NULL" style="shape=partialRectangle;overflow=hidden;connectable=0;fillColor=none;top=0;left=0;bottom=0;right=0;align=left;spacingLeft=6;" vertex="1" parent="-PqnpieTWziDfPvVV64C-91">
          <mxGeometry x="30" width="280" height="30" as="geometry" />
        </mxCell>
        <mxCell id="-PqnpieTWziDfPvVV64C-94" value="" style="shape=partialRectangle;collapsible=0;dropTarget=0;pointerEvents=0;fillColor=none;points=[[0,0.5],[1,0.5]];portConstraint=eastwest;top=0;left=0;right=0;bottom=0;" vertex="1" parent="-PqnpieTWziDfPvVV64C-30">
          <mxGeometry y="660" width="310" height="30" as="geometry" />
        </mxCell>
        <mxCell id="-PqnpieTWziDfPvVV64C-95" value="" style="shape=partialRectangle;overflow=hidden;connectable=0;fillColor=none;top=0;left=0;bottom=0;right=0;" vertex="1" parent="-PqnpieTWziDfPvVV64C-94">
          <mxGeometry width="30" height="30" as="geometry" />
        </mxCell>
        <mxCell id="-PqnpieTWziDfPvVV64C-96" value="[EffectiveEnd] [datetime] NULL" style="shape=partialRectangle;overflow=hidden;connectable=0;fillColor=none;top=0;left=0;bottom=0;right=0;align=left;spacingLeft=6;" vertex="1" parent="-PqnpieTWziDfPvVV64C-94">
          <mxGeometry x="30" width="280" height="30" as="geometry" />
        </mxCell>
        <mxCell id="-PqnpieTWziDfPvVV64C-97" value="" style="shape=partialRectangle;collapsible=0;dropTarget=0;pointerEvents=0;fillColor=none;points=[[0,0.5],[1,0.5]];portConstraint=eastwest;top=0;left=0;right=0;bottom=0;" vertex="1" parent="-PqnpieTWziDfPvVV64C-30">
          <mxGeometry y="690" width="310" height="30" as="geometry" />
        </mxCell>
        <mxCell id="-PqnpieTWziDfPvVV64C-98" value="" style="shape=partialRectangle;overflow=hidden;connectable=0;fillColor=none;top=0;left=0;bottom=0;right=0;" vertex="1" parent="-PqnpieTWziDfPvVV64C-97">
          <mxGeometry width="30" height="30" as="geometry" />
        </mxCell>
        <mxCell id="-PqnpieTWziDfPvVV64C-99" value="[Phone2AreaCode] [char](3) NULL" style="shape=partialRectangle;overflow=hidden;connectable=0;fillColor=none;top=0;left=0;bottom=0;right=0;align=left;spacingLeft=6;" vertex="1" parent="-PqnpieTWziDfPvVV64C-97">
          <mxGeometry x="30" width="280" height="30" as="geometry" />
        </mxCell>
        <mxCell id="-PqnpieTWziDfPvVV64C-100" value="" style="shape=partialRectangle;collapsible=0;dropTarget=0;pointerEvents=0;fillColor=none;points=[[0,0.5],[1,0.5]];portConstraint=eastwest;top=0;left=0;right=0;bottom=0;" vertex="1" parent="-PqnpieTWziDfPvVV64C-30">
          <mxGeometry y="720" width="310" height="30" as="geometry" />
        </mxCell>
        <mxCell id="-PqnpieTWziDfPvVV64C-101" value="" style="shape=partialRectangle;overflow=hidden;connectable=0;fillColor=none;top=0;left=0;bottom=0;right=0;" vertex="1" parent="-PqnpieTWziDfPvVV64C-100">
          <mxGeometry width="30" height="30" as="geometry" />
        </mxCell>
        <mxCell id="-PqnpieTWziDfPvVV64C-102" value="[Phone2Number] [char](8) NULL" style="shape=partialRectangle;overflow=hidden;connectable=0;fillColor=none;top=0;left=0;bottom=0;right=0;align=left;spacingLeft=6;" vertex="1" parent="-PqnpieTWziDfPvVV64C-100">
          <mxGeometry x="30" width="280" height="30" as="geometry" />
        </mxCell>
        <mxCell id="-PqnpieTWziDfPvVV64C-103" value="" style="shape=partialRectangle;collapsible=0;dropTarget=0;pointerEvents=0;fillColor=none;points=[[0,0.5],[1,0.5]];portConstraint=eastwest;top=0;left=0;right=0;bottom=0;" vertex="1" parent="-PqnpieTWziDfPvVV64C-30">
          <mxGeometry y="750" width="310" height="30" as="geometry" />
        </mxCell>
        <mxCell id="-PqnpieTWziDfPvVV64C-104" value="" style="shape=partialRectangle;overflow=hidden;connectable=0;fillColor=none;top=0;left=0;bottom=0;right=0;" vertex="1" parent="-PqnpieTWziDfPvVV64C-103">
          <mxGeometry width="30" height="30" as="geometry" />
        </mxCell>
        <mxCell id="-PqnpieTWziDfPvVV64C-105" value="[Phone2Extension] [char](4) NULL" style="shape=partialRectangle;overflow=hidden;connectable=0;fillColor=none;top=0;left=0;bottom=0;right=0;align=left;spacingLeft=6;" vertex="1" parent="-PqnpieTWziDfPvVV64C-103">
          <mxGeometry x="30" width="280" height="30" as="geometry" />
        </mxCell>
        <mxCell id="-PqnpieTWziDfPvVV64C-106" value="" style="shape=partialRectangle;collapsible=0;dropTarget=0;pointerEvents=0;fillColor=none;points=[[0,0.5],[1,0.5]];portConstraint=eastwest;top=0;left=0;right=0;bottom=0;" vertex="1" parent="-PqnpieTWziDfPvVV64C-30">
          <mxGeometry y="780" width="310" height="30" as="geometry" />
        </mxCell>
        <mxCell id="-PqnpieTWziDfPvVV64C-107" value="" style="shape=partialRectangle;overflow=hidden;connectable=0;fillColor=none;top=0;left=0;bottom=0;right=0;" vertex="1" parent="-PqnpieTWziDfPvVV64C-106">
          <mxGeometry width="30" height="30" as="geometry" />
        </mxCell>
        <mxCell id="-PqnpieTWziDfPvVV64C-108" value="[IsFrontendDisabled] [bit] NULL" style="shape=partialRectangle;overflow=hidden;connectable=0;fillColor=none;top=0;left=0;bottom=0;right=0;align=left;spacingLeft=6;" vertex="1" parent="-PqnpieTWziDfPvVV64C-106">
          <mxGeometry x="30" width="280" height="30" as="geometry" />
        </mxCell>
        <mxCell id="-PqnpieTWziDfPvVV64C-109" value="" style="shape=partialRectangle;collapsible=0;dropTarget=0;pointerEvents=0;fillColor=none;points=[[0,0.5],[1,0.5]];portConstraint=eastwest;top=0;left=0;right=0;bottom=0;" vertex="1" parent="-PqnpieTWziDfPvVV64C-30">
          <mxGeometry y="810" width="310" height="30" as="geometry" />
        </mxCell>
        <mxCell id="-PqnpieTWziDfPvVV64C-110" value="" style="shape=partialRectangle;overflow=hidden;connectable=0;fillColor=none;top=0;left=0;bottom=0;right=0;" vertex="1" parent="-PqnpieTWziDfPvVV64C-109">
          <mxGeometry width="30" height="30" as="geometry" />
        </mxCell>
        <mxCell id="-PqnpieTWziDfPvVV64C-111" value="[IsFTP] [bit] NOT NULL" style="shape=partialRectangle;overflow=hidden;connectable=0;fillColor=none;top=0;left=0;bottom=0;right=0;align=left;spacingLeft=6;" vertex="1" parent="-PqnpieTWziDfPvVV64C-109">
          <mxGeometry x="30" width="280" height="30" as="geometry" />
        </mxCell>
        <mxCell id="-PqnpieTWziDfPvVV64C-112" value="" style="shape=partialRectangle;collapsible=0;dropTarget=0;pointerEvents=0;fillColor=none;points=[[0,0.5],[1,0.5]];portConstraint=eastwest;top=0;left=0;right=0;bottom=0;" vertex="1" parent="-PqnpieTWziDfPvVV64C-30">
          <mxGeometry y="840" width="310" height="30" as="geometry" />
        </mxCell>
        <mxCell id="-PqnpieTWziDfPvVV64C-113" value="" style="shape=partialRectangle;overflow=hidden;connectable=0;fillColor=none;top=0;left=0;bottom=0;right=0;" vertex="1" parent="-PqnpieTWziDfPvVV64C-112">
          <mxGeometry width="30" height="30" as="geometry" />
        </mxCell>
        <mxCell id="-PqnpieTWziDfPvVV64C-114" value="[IsActive] [bit] NOT NULL" style="shape=partialRectangle;overflow=hidden;connectable=0;fillColor=none;top=0;left=0;bottom=0;right=0;align=left;spacingLeft=6;" vertex="1" parent="-PqnpieTWziDfPvVV64C-112">
          <mxGeometry x="30" width="280" height="30" as="geometry" />
        </mxCell>
        <mxCell id="-PqnpieTWziDfPvVV64C-115" value="" style="shape=partialRectangle;collapsible=0;dropTarget=0;pointerEvents=0;fillColor=none;points=[[0,0.5],[1,0.5]];portConstraint=eastwest;top=0;left=0;right=0;bottom=0;" vertex="1" parent="-PqnpieTWziDfPvVV64C-30">
          <mxGeometry y="870" width="310" height="30" as="geometry" />
        </mxCell>
        <mxCell id="-PqnpieTWziDfPvVV64C-116" value="" style="shape=partialRectangle;overflow=hidden;connectable=0;fillColor=none;top=0;left=0;bottom=0;right=0;" vertex="1" parent="-PqnpieTWziDfPvVV64C-115">
          <mxGeometry width="30" height="30" as="geometry" />
        </mxCell>
        <mxCell id="-PqnpieTWziDfPvVV64C-117" value="[IsRegistrationAllowed] [bit] NOT NULL" style="shape=partialRectangle;overflow=hidden;connectable=0;fillColor=none;top=0;left=0;bottom=0;right=0;align=left;spacingLeft=6;" vertex="1" parent="-PqnpieTWziDfPvVV64C-115">
          <mxGeometry x="30" width="280" height="30" as="geometry" />
        </mxCell>
        <mxCell id="-PqnpieTWziDfPvVV64C-118" value="" style="shape=partialRectangle;collapsible=0;dropTarget=0;pointerEvents=0;fillColor=none;points=[[0,0.5],[1,0.5]];portConstraint=eastwest;top=0;left=0;right=0;bottom=1;" vertex="1" parent="-PqnpieTWziDfPvVV64C-30">
          <mxGeometry y="900" width="310" height="30" as="geometry" />
        </mxCell>
        <mxCell id="-PqnpieTWziDfPvVV64C-119" value="PK" style="shape=partialRectangle;overflow=hidden;connectable=0;fillColor=none;top=0;left=0;bottom=0;right=0;fontStyle=1;" vertex="1" parent="-PqnpieTWziDfPvVV64C-118">
          <mxGeometry width="30" height="30" as="geometry" />
        </mxCell>
        <mxCell id="-PqnpieTWziDfPvVV64C-120" value="CONSTRAINT [PK_Court]  CLUSTERED" style="shape=partialRectangle;overflow=hidden;connectable=0;fillColor=none;top=0;left=0;bottom=0;right=0;align=left;spacingLeft=6;fontStyle=5;" vertex="1" parent="-PqnpieTWziDfPvVV64C-118">
          <mxGeometry x="30" width="280" height="30" as="geometry" />
        </mxCell>
        <mxCell id="-PqnpieTWziDfPvVV64C-121" value="" style="shape=partialRectangle;collapsible=0;dropTarget=0;pointerEvents=0;fillColor=none;points=[[0,0.5],[1,0.5]];portConstraint=eastwest;top=0;left=0;right=0;bottom=0;" vertex="1" parent="-PqnpieTWziDfPvVV64C-30">
          <mxGeometry y="930" width="310" height="30" as="geometry" />
        </mxCell>
        <mxCell id="-PqnpieTWziDfPvVV64C-122" value="" style="shape=partialRectangle;overflow=hidden;connectable=0;fillColor=none;top=0;left=0;bottom=0;right=0;" vertex="1" parent="-PqnpieTWziDfPvVV64C-121">
          <mxGeometry width="30" height="30" as="geometry" />
        </mxCell>
        <mxCell id="-PqnpieTWziDfPvVV64C-123" value="[CourtNo] ASC" style="shape=partialRectangle;overflow=hidden;connectable=0;fillColor=none;top=0;left=0;bottom=0;right=0;align=left;spacingLeft=6;" vertex="1" parent="-PqnpieTWziDfPvVV64C-121">
          <mxGeometry x="30" width="280" height="30" as="geometry" />
        </mxCell>
        <mxCell id="-PqnpieTWziDfPvVV64C-124" value="[dbo].[Disposition]" style="shape=table;startSize=30;container=1;collapsible=1;childLayout=tableLayout;fixedRows=1;rowLines=0;fontStyle=1;align=center;resizeLast=1;" vertex="1" parent="1">
          <mxGeometry x="105" y="770" width="310" height="400" as="geometry" />
        </mxCell>
        <mxCell id="-PqnpieTWziDfPvVV64C-125" value="" style="shape=partialRectangle;collapsible=0;dropTarget=0;pointerEvents=0;fillColor=none;points=[[0,0.5],[1,0.5]];portConstraint=eastwest;top=0;left=0;right=0;bottom=0;" vertex="1" parent="-PqnpieTWziDfPvVV64C-124">
          <mxGeometry y="30" width="310" height="30" as="geometry" />
        </mxCell>
        <mxCell id="-PqnpieTWziDfPvVV64C-126" value="" style="shape=partialRectangle;overflow=hidden;connectable=0;fillColor=none;top=0;left=0;bottom=0;right=0;" vertex="1" parent="-PqnpieTWziDfPvVV64C-125">
          <mxGeometry width="30" height="30" as="geometry" />
        </mxCell>
        <mxCell id="-PqnpieTWziDfPvVV64C-127" value="[DispositionId] [int] IDENTITY(1,1) NOT NULL" style="shape=partialRectangle;overflow=hidden;connectable=0;fillColor=none;top=0;left=0;bottom=0;right=0;align=left;spacingLeft=6;" vertex="1" parent="-PqnpieTWziDfPvVV64C-125">
          <mxGeometry x="30" width="280" height="30" as="geometry" />
        </mxCell>
        <mxCell id="-PqnpieTWziDfPvVV64C-128" value="" style="shape=partialRectangle;collapsible=0;dropTarget=0;pointerEvents=0;fillColor=none;points=[[0,0.5],[1,0.5]];portConstraint=eastwest;top=0;left=0;right=0;bottom=0;" vertex="1" parent="-PqnpieTWziDfPvVV64C-124">
          <mxGeometry y="60" width="310" height="30" as="geometry" />
        </mxCell>
        <mxCell id="-PqnpieTWziDfPvVV64C-129" value="" style="shape=partialRectangle;overflow=hidden;connectable=0;fillColor=none;top=0;left=0;bottom=0;right=0;" vertex="1" parent="-PqnpieTWziDfPvVV64C-128">
          <mxGeometry width="30" height="30" as="geometry" />
        </mxCell>
        <mxCell id="-PqnpieTWziDfPvVV64C-130" value="[RegistrationId] [int] NOT NULL" style="shape=partialRectangle;overflow=hidden;connectable=0;fillColor=none;top=0;left=0;bottom=0;right=0;align=left;spacingLeft=6;" vertex="1" parent="-PqnpieTWziDfPvVV64C-128">
          <mxGeometry x="30" width="280" height="30" as="geometry" />
        </mxCell>
        <mxCell id="-PqnpieTWziDfPvVV64C-131" value="" style="shape=partialRectangle;collapsible=0;dropTarget=0;pointerEvents=0;fillColor=none;points=[[0,0.5],[1,0.5]];portConstraint=eastwest;top=0;left=0;right=0;bottom=0;" vertex="1" parent="-PqnpieTWziDfPvVV64C-124">
          <mxGeometry y="90" width="310" height="30" as="geometry" />
        </mxCell>
        <mxCell id="-PqnpieTWziDfPvVV64C-132" value="" style="shape=partialRectangle;overflow=hidden;connectable=0;fillColor=none;top=0;left=0;bottom=0;right=0;" vertex="1" parent="-PqnpieTWziDfPvVV64C-131">
          <mxGeometry width="30" height="30" as="geometry" />
        </mxCell>
        <mxCell id="-PqnpieTWziDfPvVV64C-133" value="[DispositionTypeCd] [int] NOT NULL" style="shape=partialRectangle;overflow=hidden;connectable=0;fillColor=none;top=0;left=0;bottom=0;right=0;align=left;spacingLeft=6;" vertex="1" parent="-PqnpieTWziDfPvVV64C-131">
          <mxGeometry x="30" width="280" height="30" as="geometry" />
        </mxCell>
        <mxCell id="-PqnpieTWziDfPvVV64C-134" value="" style="shape=partialRectangle;collapsible=0;dropTarget=0;pointerEvents=0;fillColor=none;points=[[0,0.5],[1,0.5]];portConstraint=eastwest;top=0;left=0;right=0;bottom=0;" vertex="1" parent="-PqnpieTWziDfPvVV64C-124">
          <mxGeometry y="120" width="310" height="30" as="geometry" />
        </mxCell>
        <mxCell id="-PqnpieTWziDfPvVV64C-135" value="" style="shape=partialRectangle;overflow=hidden;connectable=0;fillColor=none;top=0;left=0;bottom=0;right=0;" vertex="1" parent="-PqnpieTWziDfPvVV64C-134">
          <mxGeometry width="30" height="30" as="geometry" />
        </mxCell>
        <mxCell id="-PqnpieTWziDfPvVV64C-136" value="[TransferToCourtNo] [int] NULL" style="shape=partialRectangle;overflow=hidden;connectable=0;fillColor=none;top=0;left=0;bottom=0;right=0;align=left;spacingLeft=6;" vertex="1" parent="-PqnpieTWziDfPvVV64C-134">
          <mxGeometry x="30" width="280" height="30" as="geometry" />
        </mxCell>
        <mxCell id="-PqnpieTWziDfPvVV64C-137" value="" style="shape=partialRectangle;collapsible=0;dropTarget=0;pointerEvents=0;fillColor=none;points=[[0,0.5],[1,0.5]];portConstraint=eastwest;top=0;left=0;right=0;bottom=0;" vertex="1" parent="-PqnpieTWziDfPvVV64C-124">
          <mxGeometry y="150" width="310" height="30" as="geometry" />
        </mxCell>
        <mxCell id="-PqnpieTWziDfPvVV64C-138" value="" style="shape=partialRectangle;overflow=hidden;connectable=0;fillColor=none;top=0;left=0;bottom=0;right=0;" vertex="1" parent="-PqnpieTWziDfPvVV64C-137">
          <mxGeometry width="30" height="30" as="geometry" />
        </mxCell>
        <mxCell id="-PqnpieTWziDfPvVV64C-139" value="[DispositionDate] [date] NOT NULL" style="shape=partialRectangle;overflow=hidden;connectable=0;fillColor=none;top=0;left=0;bottom=0;right=0;align=left;spacingLeft=6;" vertex="1" parent="-PqnpieTWziDfPvVV64C-137">
          <mxGeometry x="30" width="280" height="30" as="geometry" />
        </mxCell>
        <mxCell id="-PqnpieTWziDfPvVV64C-140" value="" style="shape=partialRectangle;collapsible=0;dropTarget=0;pointerEvents=0;fillColor=none;points=[[0,0.5],[1,0.5]];portConstraint=eastwest;top=0;left=0;right=0;bottom=0;" vertex="1" parent="-PqnpieTWziDfPvVV64C-124">
          <mxGeometry y="180" width="310" height="30" as="geometry" />
        </mxCell>
        <mxCell id="-PqnpieTWziDfPvVV64C-141" value="" style="shape=partialRectangle;overflow=hidden;connectable=0;fillColor=none;top=0;left=0;bottom=0;right=0;" vertex="1" parent="-PqnpieTWziDfPvVV64C-140">
          <mxGeometry width="30" height="30" as="geometry" />
        </mxCell>
        <mxCell id="-PqnpieTWziDfPvVV64C-142" value="[DateSigned] [date] NOT NULL" style="shape=partialRectangle;overflow=hidden;connectable=0;fillColor=none;top=0;left=0;bottom=0;right=0;align=left;spacingLeft=6;" vertex="1" parent="-PqnpieTWziDfPvVV64C-140">
          <mxGeometry x="30" width="280" height="30" as="geometry" />
        </mxCell>
        <mxCell id="-PqnpieTWziDfPvVV64C-143" value="" style="shape=partialRectangle;collapsible=0;dropTarget=0;pointerEvents=0;fillColor=none;points=[[0,0.5],[1,0.5]];portConstraint=eastwest;top=0;left=0;right=0;bottom=0;" vertex="1" parent="-PqnpieTWziDfPvVV64C-124">
          <mxGeometry y="210" width="310" height="30" as="geometry" />
        </mxCell>
        <mxCell id="-PqnpieTWziDfPvVV64C-144" value="" style="shape=partialRectangle;overflow=hidden;connectable=0;fillColor=none;top=0;left=0;bottom=0;right=0;" vertex="1" parent="-PqnpieTWziDfPvVV64C-143">
          <mxGeometry width="30" height="30" as="geometry" />
        </mxCell>
        <mxCell id="-PqnpieTWziDfPvVV64C-145" value="[CreatedBySubmCd] [char](10) NOT NULL" style="shape=partialRectangle;overflow=hidden;connectable=0;fillColor=none;top=0;left=0;bottom=0;right=0;align=left;spacingLeft=6;" vertex="1" parent="-PqnpieTWziDfPvVV64C-143">
          <mxGeometry x="30" width="280" height="30" as="geometry" />
        </mxCell>
        <mxCell id="-PqnpieTWziDfPvVV64C-146" value="" style="shape=partialRectangle;collapsible=0;dropTarget=0;pointerEvents=0;fillColor=none;points=[[0,0.5],[1,0.5]];portConstraint=eastwest;top=0;left=0;right=0;bottom=0;" vertex="1" parent="-PqnpieTWziDfPvVV64C-124">
          <mxGeometry y="240" width="310" height="30" as="geometry" />
        </mxCell>
        <mxCell id="-PqnpieTWziDfPvVV64C-147" value="" style="shape=partialRectangle;overflow=hidden;connectable=0;fillColor=none;top=0;left=0;bottom=0;right=0;" vertex="1" parent="-PqnpieTWziDfPvVV64C-146">
          <mxGeometry width="30" height="30" as="geometry" />
        </mxCell>
        <mxCell id="-PqnpieTWziDfPvVV64C-148" value="[Created] [datetime] NOT NULL" style="shape=partialRectangle;overflow=hidden;connectable=0;fillColor=none;top=0;left=0;bottom=0;right=0;align=left;spacingLeft=6;" vertex="1" parent="-PqnpieTWziDfPvVV64C-146">
          <mxGeometry x="30" width="280" height="30" as="geometry" />
        </mxCell>
        <mxCell id="-PqnpieTWziDfPvVV64C-149" value="" style="shape=partialRectangle;collapsible=0;dropTarget=0;pointerEvents=0;fillColor=none;points=[[0,0.5],[1,0.5]];portConstraint=eastwest;top=0;left=0;right=0;bottom=0;" vertex="1" parent="-PqnpieTWziDfPvVV64C-124">
          <mxGeometry y="270" width="310" height="30" as="geometry" />
        </mxCell>
        <mxCell id="-PqnpieTWziDfPvVV64C-150" value="" style="shape=partialRectangle;overflow=hidden;connectable=0;fillColor=none;top=0;left=0;bottom=0;right=0;" vertex="1" parent="-PqnpieTWziDfPvVV64C-149">
          <mxGeometry width="30" height="30" as="geometry" />
        </mxCell>
        <mxCell id="-PqnpieTWziDfPvVV64C-151" value="[LastModifiedBySubmCd] [char](10) NOT NULL" style="shape=partialRectangle;overflow=hidden;connectable=0;fillColor=none;top=0;left=0;bottom=0;right=0;align=left;spacingLeft=6;" vertex="1" parent="-PqnpieTWziDfPvVV64C-149">
          <mxGeometry x="30" width="280" height="30" as="geometry" />
        </mxCell>
        <mxCell id="-PqnpieTWziDfPvVV64C-152" value="" style="shape=partialRectangle;collapsible=0;dropTarget=0;pointerEvents=0;fillColor=none;points=[[0,0.5],[1,0.5]];portConstraint=eastwest;top=0;left=0;right=0;bottom=0;" vertex="1" parent="-PqnpieTWziDfPvVV64C-124">
          <mxGeometry y="300" width="310" height="30" as="geometry" />
        </mxCell>
        <mxCell id="-PqnpieTWziDfPvVV64C-153" value="" style="shape=partialRectangle;overflow=hidden;connectable=0;fillColor=none;top=0;left=0;bottom=0;right=0;" vertex="1" parent="-PqnpieTWziDfPvVV64C-152">
          <mxGeometry width="30" height="30" as="geometry" />
        </mxCell>
        <mxCell id="-PqnpieTWziDfPvVV64C-154" value="[LastModified] [datetime] NOT NULL" style="shape=partialRectangle;overflow=hidden;connectable=0;fillColor=none;top=0;left=0;bottom=0;right=0;align=left;spacingLeft=6;" vertex="1" parent="-PqnpieTWziDfPvVV64C-152">
          <mxGeometry x="30" width="280" height="30" as="geometry" />
        </mxCell>
        <mxCell id="-PqnpieTWziDfPvVV64C-155" value="" style="shape=partialRectangle;collapsible=0;dropTarget=0;pointerEvents=0;fillColor=none;points=[[0,0.5],[1,0.5]];portConstraint=eastwest;top=0;left=0;right=0;bottom=1;" vertex="1" parent="-PqnpieTWziDfPvVV64C-124">
          <mxGeometry y="330" width="310" height="30" as="geometry" />
        </mxCell>
        <mxCell id="-PqnpieTWziDfPvVV64C-156" value="PK" style="shape=partialRectangle;overflow=hidden;connectable=0;fillColor=none;top=0;left=0;bottom=0;right=0;fontStyle=1;" vertex="1" parent="-PqnpieTWziDfPvVV64C-155">
          <mxGeometry width="30" height="30" as="geometry" />
        </mxCell>
        <mxCell id="-PqnpieTWziDfPvVV64C-157" value="CONSTRAINT [PK_Disposition]  CLUSTERED" style="shape=partialRectangle;overflow=hidden;connectable=0;fillColor=none;top=0;left=0;bottom=0;right=0;align=left;spacingLeft=6;fontStyle=5;" vertex="1" parent="-PqnpieTWziDfPvVV64C-155">
          <mxGeometry x="30" width="280" height="30" as="geometry" />
        </mxCell>
        <mxCell id="-PqnpieTWziDfPvVV64C-158" value="" style="shape=partialRectangle;collapsible=0;dropTarget=0;pointerEvents=0;fillColor=none;points=[[0,0.5],[1,0.5]];portConstraint=eastwest;top=0;left=0;right=0;bottom=0;" vertex="1" parent="-PqnpieTWziDfPvVV64C-124">
          <mxGeometry y="360" width="310" height="30" as="geometry" />
        </mxCell>
        <mxCell id="-PqnpieTWziDfPvVV64C-159" value="" style="shape=partialRectangle;overflow=hidden;connectable=0;fillColor=none;top=0;left=0;bottom=0;right=0;" vertex="1" parent="-PqnpieTWziDfPvVV64C-158">
          <mxGeometry width="30" height="30" as="geometry" />
        </mxCell>
        <mxCell id="-PqnpieTWziDfPvVV64C-160" value="[DispositionId] ASC" style="shape=partialRectangle;overflow=hidden;connectable=0;fillColor=none;top=0;left=0;bottom=0;right=0;align=left;spacingLeft=6;" vertex="1" parent="-PqnpieTWziDfPvVV64C-158">
          <mxGeometry x="30" width="280" height="30" as="geometry" />
        </mxCell>
        <mxCell id="-PqnpieTWziDfPvVV64C-174" value="[dbo].[DispositionType]" style="shape=table;startSize=30;container=1;collapsible=1;childLayout=tableLayout;fixedRows=1;rowLines=0;fontStyle=1;align=center;resizeLast=1;" vertex="1" parent="1">
          <mxGeometry x="100" y="1220" width="320" height="280" as="geometry" />
        </mxCell>
        <mxCell id="-PqnpieTWziDfPvVV64C-175" value="" style="shape=partialRectangle;collapsible=0;dropTarget=0;pointerEvents=0;fillColor=none;points=[[0,0.5],[1,0.5]];portConstraint=eastwest;top=0;left=0;right=0;bottom=0;" vertex="1" parent="-PqnpieTWziDfPvVV64C-174">
          <mxGeometry y="30" width="320" height="30" as="geometry" />
        </mxCell>
        <mxCell id="-PqnpieTWziDfPvVV64C-176" value="" style="shape=partialRectangle;overflow=hidden;connectable=0;fillColor=none;top=0;left=0;bottom=0;right=0;" vertex="1" parent="-PqnpieTWziDfPvVV64C-175">
          <mxGeometry width="30" height="30" as="geometry" />
        </mxCell>
        <mxCell id="-PqnpieTWziDfPvVV64C-177" value="[DispositionTypeCd] [int] NOT NULL" style="shape=partialRectangle;overflow=hidden;connectable=0;fillColor=none;top=0;left=0;bottom=0;right=0;align=left;spacingLeft=6;" vertex="1" parent="-PqnpieTWziDfPvVV64C-175">
          <mxGeometry x="30" width="290" height="30" as="geometry" />
        </mxCell>
        <mxCell id="-PqnpieTWziDfPvVV64C-178" value="" style="shape=partialRectangle;collapsible=0;dropTarget=0;pointerEvents=0;fillColor=none;points=[[0,0.5],[1,0.5]];portConstraint=eastwest;top=0;left=0;right=0;bottom=0;" vertex="1" parent="-PqnpieTWziDfPvVV64C-174">
          <mxGeometry y="60" width="320" height="30" as="geometry" />
        </mxCell>
        <mxCell id="-PqnpieTWziDfPvVV64C-179" value="" style="shape=partialRectangle;overflow=hidden;connectable=0;fillColor=none;top=0;left=0;bottom=0;right=0;" vertex="1" parent="-PqnpieTWziDfPvVV64C-178">
          <mxGeometry width="30" height="30" as="geometry" />
        </mxCell>
        <mxCell id="-PqnpieTWziDfPvVV64C-180" value="[Description_E] [varchar](120) NOT NULL" style="shape=partialRectangle;overflow=hidden;connectable=0;fillColor=none;top=0;left=0;bottom=0;right=0;align=left;spacingLeft=6;" vertex="1" parent="-PqnpieTWziDfPvVV64C-178">
          <mxGeometry x="30" width="290" height="30" as="geometry" />
        </mxCell>
        <mxCell id="-PqnpieTWziDfPvVV64C-181" value="" style="shape=partialRectangle;collapsible=0;dropTarget=0;pointerEvents=0;fillColor=none;points=[[0,0.5],[1,0.5]];portConstraint=eastwest;top=0;left=0;right=0;bottom=0;" vertex="1" parent="-PqnpieTWziDfPvVV64C-174">
          <mxGeometry y="90" width="320" height="30" as="geometry" />
        </mxCell>
        <mxCell id="-PqnpieTWziDfPvVV64C-182" value="" style="shape=partialRectangle;overflow=hidden;connectable=0;fillColor=none;top=0;left=0;bottom=0;right=0;" vertex="1" parent="-PqnpieTWziDfPvVV64C-181">
          <mxGeometry width="30" height="30" as="geometry" />
        </mxCell>
        <mxCell id="-PqnpieTWziDfPvVV64C-183" value="[Description_F] [varchar](120) NOT NULL" style="shape=partialRectangle;overflow=hidden;connectable=0;fillColor=none;top=0;left=0;bottom=0;right=0;align=left;spacingLeft=6;" vertex="1" parent="-PqnpieTWziDfPvVV64C-181">
          <mxGeometry x="30" width="290" height="30" as="geometry" />
        </mxCell>
        <mxCell id="-PqnpieTWziDfPvVV64C-184" value="" style="shape=partialRectangle;collapsible=0;dropTarget=0;pointerEvents=0;fillColor=none;points=[[0,0.5],[1,0.5]];portConstraint=eastwest;top=0;left=0;right=0;bottom=0;" vertex="1" parent="-PqnpieTWziDfPvVV64C-174">
          <mxGeometry y="120" width="320" height="30" as="geometry" />
        </mxCell>
        <mxCell id="-PqnpieTWziDfPvVV64C-185" value="" style="shape=partialRectangle;overflow=hidden;connectable=0;fillColor=none;top=0;left=0;bottom=0;right=0;" vertex="1" parent="-PqnpieTWziDfPvVV64C-184">
          <mxGeometry width="30" height="30" as="geometry" />
        </mxCell>
        <mxCell id="-PqnpieTWziDfPvVV64C-186" value="[DisplayOrder] [int] NOT NULL" style="shape=partialRectangle;overflow=hidden;connectable=0;fillColor=none;top=0;left=0;bottom=0;right=0;align=left;spacingLeft=6;" vertex="1" parent="-PqnpieTWziDfPvVV64C-184">
          <mxGeometry x="30" width="290" height="30" as="geometry" />
        </mxCell>
        <mxCell id="-PqnpieTWziDfPvVV64C-187" value="" style="shape=partialRectangle;collapsible=0;dropTarget=0;pointerEvents=0;fillColor=none;points=[[0,0.5],[1,0.5]];portConstraint=eastwest;top=0;left=0;right=0;bottom=0;" vertex="1" parent="-PqnpieTWziDfPvVV64C-174">
          <mxGeometry y="150" width="320" height="30" as="geometry" />
        </mxCell>
        <mxCell id="-PqnpieTWziDfPvVV64C-188" value="" style="shape=partialRectangle;overflow=hidden;connectable=0;fillColor=none;top=0;left=0;bottom=0;right=0;" vertex="1" parent="-PqnpieTWziDfPvVV64C-187">
          <mxGeometry width="30" height="30" as="geometry" />
        </mxCell>
        <mxCell id="-PqnpieTWziDfPvVV64C-189" value="[EffectiveStart] [datetime] NOT NULL" style="shape=partialRectangle;overflow=hidden;connectable=0;fillColor=none;top=0;left=0;bottom=0;right=0;align=left;spacingLeft=6;" vertex="1" parent="-PqnpieTWziDfPvVV64C-187">
          <mxGeometry x="30" width="290" height="30" as="geometry" />
        </mxCell>
        <mxCell id="-PqnpieTWziDfPvVV64C-190" value="" style="shape=partialRectangle;collapsible=0;dropTarget=0;pointerEvents=0;fillColor=none;points=[[0,0.5],[1,0.5]];portConstraint=eastwest;top=0;left=0;right=0;bottom=0;" vertex="1" parent="-PqnpieTWziDfPvVV64C-174">
          <mxGeometry y="180" width="320" height="30" as="geometry" />
        </mxCell>
        <mxCell id="-PqnpieTWziDfPvVV64C-191" value="" style="shape=partialRectangle;overflow=hidden;connectable=0;fillColor=none;top=0;left=0;bottom=0;right=0;" vertex="1" parent="-PqnpieTWziDfPvVV64C-190">
          <mxGeometry width="30" height="30" as="geometry" />
        </mxCell>
        <mxCell id="-PqnpieTWziDfPvVV64C-192" value="[EffectiveEnd] [datetime] NULL" style="shape=partialRectangle;overflow=hidden;connectable=0;fillColor=none;top=0;left=0;bottom=0;right=0;align=left;spacingLeft=6;" vertex="1" parent="-PqnpieTWziDfPvVV64C-190">
          <mxGeometry x="30" width="290" height="30" as="geometry" />
        </mxCell>
        <mxCell id="-PqnpieTWziDfPvVV64C-193" value="" style="shape=partialRectangle;collapsible=0;dropTarget=0;pointerEvents=0;fillColor=none;points=[[0,0.5],[1,0.5]];portConstraint=eastwest;top=0;left=0;right=0;bottom=1;" vertex="1" parent="-PqnpieTWziDfPvVV64C-174">
          <mxGeometry y="210" width="320" height="30" as="geometry" />
        </mxCell>
        <mxCell id="-PqnpieTWziDfPvVV64C-194" value="PK" style="shape=partialRectangle;overflow=hidden;connectable=0;fillColor=none;top=0;left=0;bottom=0;right=0;fontStyle=1;" vertex="1" parent="-PqnpieTWziDfPvVV64C-193">
          <mxGeometry width="30" height="30" as="geometry" />
        </mxCell>
        <mxCell id="-PqnpieTWziDfPvVV64C-195" value="CONSTRAINT [PK_DispositionType]  CLUSTERED" style="shape=partialRectangle;overflow=hidden;connectable=0;fillColor=none;top=0;left=0;bottom=0;right=0;align=left;spacingLeft=6;fontStyle=5;" vertex="1" parent="-PqnpieTWziDfPvVV64C-193">
          <mxGeometry x="30" width="290" height="30" as="geometry" />
        </mxCell>
        <mxCell id="-PqnpieTWziDfPvVV64C-196" value="" style="shape=partialRectangle;collapsible=0;dropTarget=0;pointerEvents=0;fillColor=none;points=[[0,0.5],[1,0.5]];portConstraint=eastwest;top=0;left=0;right=0;bottom=0;" vertex="1" parent="-PqnpieTWziDfPvVV64C-174">
          <mxGeometry y="240" width="320" height="30" as="geometry" />
        </mxCell>
        <mxCell id="-PqnpieTWziDfPvVV64C-197" value="" style="shape=partialRectangle;overflow=hidden;connectable=0;fillColor=none;top=0;left=0;bottom=0;right=0;" vertex="1" parent="-PqnpieTWziDfPvVV64C-196">
          <mxGeometry width="30" height="30" as="geometry" />
        </mxCell>
        <mxCell id="-PqnpieTWziDfPvVV64C-198" value="[DispositionTypeCd] ASC" style="shape=partialRectangle;overflow=hidden;connectable=0;fillColor=none;top=0;left=0;bottom=0;right=0;align=left;spacingLeft=6;" vertex="1" parent="-PqnpieTWziDfPvVV64C-196">
          <mxGeometry x="30" width="290" height="30" as="geometry" />
        </mxCell>
        <mxCell id="-PqnpieTWziDfPvVV64C-199" value="[dbo].[EventSubm]" style="shape=table;startSize=30;container=1;collapsible=1;childLayout=tableLayout;fixedRows=1;rowLines=0;fontStyle=1;align=center;resizeLast=1;" vertex="1" parent="1">
          <mxGeometry x="105" y="320" width="320" height="400" as="geometry" />
        </mxCell>
        <mxCell id="-PqnpieTWziDfPvVV64C-200" value="" style="shape=partialRectangle;collapsible=0;dropTarget=0;pointerEvents=0;fillColor=none;points=[[0,0.5],[1,0.5]];portConstraint=eastwest;top=0;left=0;right=0;bottom=0;" vertex="1" parent="-PqnpieTWziDfPvVV64C-199">
          <mxGeometry y="30" width="320" height="30" as="geometry" />
        </mxCell>
        <mxCell id="-PqnpieTWziDfPvVV64C-201" value="" style="shape=partialRectangle;overflow=hidden;connectable=0;fillColor=none;top=0;left=0;bottom=0;right=0;" vertex="1" parent="-PqnpieTWziDfPvVV64C-200">
          <mxGeometry width="30" height="30" as="geometry" />
        </mxCell>
        <mxCell id="-PqnpieTWziDfPvVV64C-202" value="[EventSubmID] [int] IDENTITY(1,1) NOT NULL" style="shape=partialRectangle;overflow=hidden;connectable=0;fillColor=none;top=0;left=0;bottom=0;right=0;align=left;spacingLeft=6;" vertex="1" parent="-PqnpieTWziDfPvVV64C-200">
          <mxGeometry x="30" width="290" height="30" as="geometry" />
        </mxCell>
        <mxCell id="-PqnpieTWziDfPvVV64C-203" value="" style="shape=partialRectangle;collapsible=0;dropTarget=0;pointerEvents=0;fillColor=none;points=[[0,0.5],[1,0.5]];portConstraint=eastwest;top=0;left=0;right=0;bottom=0;" vertex="1" parent="-PqnpieTWziDfPvVV64C-199">
          <mxGeometry y="60" width="320" height="30" as="geometry" />
        </mxCell>
        <mxCell id="-PqnpieTWziDfPvVV64C-204" value="" style="shape=partialRectangle;overflow=hidden;connectable=0;fillColor=none;top=0;left=0;bottom=0;right=0;" vertex="1" parent="-PqnpieTWziDfPvVV64C-203">
          <mxGeometry width="30" height="30" as="geometry" />
        </mxCell>
        <mxCell id="-PqnpieTWziDfPvVV64C-205" value="[EventReasonCd] [int] NOT NULL" style="shape=partialRectangle;overflow=hidden;connectable=0;fillColor=none;top=0;left=0;bottom=0;right=0;align=left;spacingLeft=6;" vertex="1" parent="-PqnpieTWziDfPvVV64C-203">
          <mxGeometry x="30" width="290" height="30" as="geometry" />
        </mxCell>
        <mxCell id="-PqnpieTWziDfPvVV64C-206" value="" style="shape=partialRectangle;collapsible=0;dropTarget=0;pointerEvents=0;fillColor=none;points=[[0,0.5],[1,0.5]];portConstraint=eastwest;top=0;left=0;right=0;bottom=0;" vertex="1" parent="-PqnpieTWziDfPvVV64C-199">
          <mxGeometry y="90" width="320" height="30" as="geometry" />
        </mxCell>
        <mxCell id="-PqnpieTWziDfPvVV64C-207" value="" style="shape=partialRectangle;overflow=hidden;connectable=0;fillColor=none;top=0;left=0;bottom=0;right=0;" vertex="1" parent="-PqnpieTWziDfPvVV64C-206">
          <mxGeometry width="30" height="30" as="geometry" />
        </mxCell>
        <mxCell id="-PqnpieTWziDfPvVV64C-208" value="[EventReasonText] [varchar](80) NULL" style="shape=partialRectangle;overflow=hidden;connectable=0;fillColor=none;top=0;left=0;bottom=0;right=0;align=left;spacingLeft=6;" vertex="1" parent="-PqnpieTWziDfPvVV64C-206">
          <mxGeometry x="30" width="290" height="30" as="geometry" />
        </mxCell>
        <mxCell id="-PqnpieTWziDfPvVV64C-209" value="" style="shape=partialRectangle;collapsible=0;dropTarget=0;pointerEvents=0;fillColor=none;points=[[0,0.5],[1,0.5]];portConstraint=eastwest;top=0;left=0;right=0;bottom=0;" vertex="1" parent="-PqnpieTWziDfPvVV64C-199">
          <mxGeometry y="120" width="320" height="30" as="geometry" />
        </mxCell>
        <mxCell id="-PqnpieTWziDfPvVV64C-210" value="" style="shape=partialRectangle;overflow=hidden;connectable=0;fillColor=none;top=0;left=0;bottom=0;right=0;" vertex="1" parent="-PqnpieTWziDfPvVV64C-209">
          <mxGeometry width="30" height="30" as="geometry" />
        </mxCell>
        <mxCell id="-PqnpieTWziDfPvVV64C-211" value="[SubmCd] [char](10) NOT NULL" style="shape=partialRectangle;overflow=hidden;connectable=0;fillColor=none;top=0;left=0;bottom=0;right=0;align=left;spacingLeft=6;" vertex="1" parent="-PqnpieTWziDfPvVV64C-209">
          <mxGeometry x="30" width="290" height="30" as="geometry" />
        </mxCell>
        <mxCell id="-PqnpieTWziDfPvVV64C-212" value="" style="shape=partialRectangle;collapsible=0;dropTarget=0;pointerEvents=0;fillColor=none;points=[[0,0.5],[1,0.5]];portConstraint=eastwest;top=0;left=0;right=0;bottom=0;" vertex="1" parent="-PqnpieTWziDfPvVV64C-199">
          <mxGeometry y="150" width="320" height="30" as="geometry" />
        </mxCell>
        <mxCell id="-PqnpieTWziDfPvVV64C-213" value="" style="shape=partialRectangle;overflow=hidden;connectable=0;fillColor=none;top=0;left=0;bottom=0;right=0;" vertex="1" parent="-PqnpieTWziDfPvVV64C-212">
          <mxGeometry width="30" height="30" as="geometry" />
        </mxCell>
        <mxCell id="-PqnpieTWziDfPvVV64C-214" value="[RegistrationId] [int] NULL" style="shape=partialRectangle;overflow=hidden;connectable=0;fillColor=none;top=0;left=0;bottom=0;right=0;align=left;spacingLeft=6;" vertex="1" parent="-PqnpieTWziDfPvVV64C-212">
          <mxGeometry x="30" width="290" height="30" as="geometry" />
        </mxCell>
        <mxCell id="-PqnpieTWziDfPvVV64C-215" value="" style="shape=partialRectangle;collapsible=0;dropTarget=0;pointerEvents=0;fillColor=none;points=[[0,0.5],[1,0.5]];portConstraint=eastwest;top=0;left=0;right=0;bottom=0;" vertex="1" parent="-PqnpieTWziDfPvVV64C-199">
          <mxGeometry y="180" width="320" height="30" as="geometry" />
        </mxCell>
        <mxCell id="-PqnpieTWziDfPvVV64C-216" value="" style="shape=partialRectangle;overflow=hidden;connectable=0;fillColor=none;top=0;left=0;bottom=0;right=0;" vertex="1" parent="-PqnpieTWziDfPvVV64C-215">
          <mxGeometry width="30" height="30" as="geometry" />
        </mxCell>
        <mxCell id="-PqnpieTWziDfPvVV64C-217" value="[EventTimeStamp] [datetime] NOT NULL" style="shape=partialRectangle;overflow=hidden;connectable=0;fillColor=none;top=0;left=0;bottom=0;right=0;align=left;spacingLeft=6;" vertex="1" parent="-PqnpieTWziDfPvVV64C-215">
          <mxGeometry x="30" width="290" height="30" as="geometry" />
        </mxCell>
        <mxCell id="-PqnpieTWziDfPvVV64C-218" value="" style="shape=partialRectangle;collapsible=0;dropTarget=0;pointerEvents=0;fillColor=none;points=[[0,0.5],[1,0.5]];portConstraint=eastwest;top=0;left=0;right=0;bottom=0;" vertex="1" parent="-PqnpieTWziDfPvVV64C-199">
          <mxGeometry y="210" width="320" height="30" as="geometry" />
        </mxCell>
        <mxCell id="-PqnpieTWziDfPvVV64C-219" value="" style="shape=partialRectangle;overflow=hidden;connectable=0;fillColor=none;top=0;left=0;bottom=0;right=0;" vertex="1" parent="-PqnpieTWziDfPvVV64C-218">
          <mxGeometry width="30" height="30" as="geometry" />
        </mxCell>
        <mxCell id="-PqnpieTWziDfPvVV64C-220" value="[EventCompletion] [datetime] NULL" style="shape=partialRectangle;overflow=hidden;connectable=0;fillColor=none;top=0;left=0;bottom=0;right=0;align=left;spacingLeft=6;" vertex="1" parent="-PqnpieTWziDfPvVV64C-218">
          <mxGeometry x="30" width="290" height="30" as="geometry" />
        </mxCell>
        <mxCell id="-PqnpieTWziDfPvVV64C-221" value="" style="shape=partialRectangle;collapsible=0;dropTarget=0;pointerEvents=0;fillColor=none;points=[[0,0.5],[1,0.5]];portConstraint=eastwest;top=0;left=0;right=0;bottom=0;" vertex="1" parent="-PqnpieTWziDfPvVV64C-199">
          <mxGeometry y="240" width="320" height="30" as="geometry" />
        </mxCell>
        <mxCell id="-PqnpieTWziDfPvVV64C-222" value="" style="shape=partialRectangle;overflow=hidden;connectable=0;fillColor=none;top=0;left=0;bottom=0;right=0;" vertex="1" parent="-PqnpieTWziDfPvVV64C-221">
          <mxGeometry width="30" height="30" as="geometry" />
        </mxCell>
        <mxCell id="-PqnpieTWziDfPvVV64C-223" value="[EventPriority] [char](1) NULL" style="shape=partialRectangle;overflow=hidden;connectable=0;fillColor=none;top=0;left=0;bottom=0;right=0;align=left;spacingLeft=6;" vertex="1" parent="-PqnpieTWziDfPvVV64C-221">
          <mxGeometry x="30" width="290" height="30" as="geometry" />
        </mxCell>
        <mxCell id="-PqnpieTWziDfPvVV64C-224" value="" style="shape=partialRectangle;collapsible=0;dropTarget=0;pointerEvents=0;fillColor=none;points=[[0,0.5],[1,0.5]];portConstraint=eastwest;top=0;left=0;right=0;bottom=0;" vertex="1" parent="-PqnpieTWziDfPvVV64C-199">
          <mxGeometry y="270" width="320" height="30" as="geometry" />
        </mxCell>
        <mxCell id="-PqnpieTWziDfPvVV64C-225" value="" style="shape=partialRectangle;overflow=hidden;connectable=0;fillColor=none;top=0;left=0;bottom=0;right=0;" vertex="1" parent="-PqnpieTWziDfPvVV64C-224">
          <mxGeometry width="30" height="30" as="geometry" />
        </mxCell>
        <mxCell id="-PqnpieTWziDfPvVV64C-226" value="[ActiveStateCd] [char](1) NOT NULL" style="shape=partialRectangle;overflow=hidden;connectable=0;fillColor=none;top=0;left=0;bottom=0;right=0;align=left;spacingLeft=6;" vertex="1" parent="-PqnpieTWziDfPvVV64C-224">
          <mxGeometry x="30" width="290" height="30" as="geometry" />
        </mxCell>
        <mxCell id="-PqnpieTWziDfPvVV64C-227" value="" style="shape=partialRectangle;collapsible=0;dropTarget=0;pointerEvents=0;fillColor=none;points=[[0,0.5],[1,0.5]];portConstraint=eastwest;top=0;left=0;right=0;bottom=0;" vertex="1" parent="-PqnpieTWziDfPvVV64C-199">
          <mxGeometry y="300" width="320" height="30" as="geometry" />
        </mxCell>
        <mxCell id="-PqnpieTWziDfPvVV64C-228" value="" style="shape=partialRectangle;overflow=hidden;connectable=0;fillColor=none;top=0;left=0;bottom=0;right=0;" vertex="1" parent="-PqnpieTWziDfPvVV64C-227">
          <mxGeometry width="30" height="30" as="geometry" />
        </mxCell>
        <mxCell id="-PqnpieTWziDfPvVV64C-229" value="[ApplicationStateCd] [int] NULL" style="shape=partialRectangle;overflow=hidden;connectable=0;fillColor=none;top=0;left=0;bottom=0;right=0;align=left;spacingLeft=6;" vertex="1" parent="-PqnpieTWziDfPvVV64C-227">
          <mxGeometry x="30" width="290" height="30" as="geometry" />
        </mxCell>
        <mxCell id="-PqnpieTWziDfPvVV64C-230" value="" style="shape=partialRectangle;collapsible=0;dropTarget=0;pointerEvents=0;fillColor=none;points=[[0,0.5],[1,0.5]];portConstraint=eastwest;top=0;left=0;right=0;bottom=1;" vertex="1" parent="-PqnpieTWziDfPvVV64C-199">
          <mxGeometry y="330" width="320" height="30" as="geometry" />
        </mxCell>
        <mxCell id="-PqnpieTWziDfPvVV64C-231" value="PK" style="shape=partialRectangle;overflow=hidden;connectable=0;fillColor=none;top=0;left=0;bottom=0;right=0;fontStyle=1;" vertex="1" parent="-PqnpieTWziDfPvVV64C-230">
          <mxGeometry width="30" height="30" as="geometry" />
        </mxCell>
        <mxCell id="-PqnpieTWziDfPvVV64C-232" value="CONSTRAINT [PK__EventSub__9DBF89397CD98669]  CLUSTERED" style="shape=partialRectangle;overflow=hidden;connectable=0;fillColor=none;top=0;left=0;bottom=0;right=0;align=left;spacingLeft=6;fontStyle=5;" vertex="1" parent="-PqnpieTWziDfPvVV64C-230">
          <mxGeometry x="30" width="290" height="30" as="geometry" />
        </mxCell>
        <mxCell id="-PqnpieTWziDfPvVV64C-233" value="" style="shape=partialRectangle;collapsible=0;dropTarget=0;pointerEvents=0;fillColor=none;points=[[0,0.5],[1,0.5]];portConstraint=eastwest;top=0;left=0;right=0;bottom=0;" vertex="1" parent="-PqnpieTWziDfPvVV64C-199">
          <mxGeometry y="360" width="320" height="30" as="geometry" />
        </mxCell>
        <mxCell id="-PqnpieTWziDfPvVV64C-234" value="" style="shape=partialRectangle;overflow=hidden;connectable=0;fillColor=none;top=0;left=0;bottom=0;right=0;" vertex="1" parent="-PqnpieTWziDfPvVV64C-233">
          <mxGeometry width="30" height="30" as="geometry" />
        </mxCell>
        <mxCell id="-PqnpieTWziDfPvVV64C-235" value="[EventSubmID] ASC" style="shape=partialRectangle;overflow=hidden;connectable=0;fillColor=none;top=0;left=0;bottom=0;right=0;align=left;spacingLeft=6;" vertex="1" parent="-PqnpieTWziDfPvVV64C-233">
          <mxGeometry x="30" width="290" height="30" as="geometry" />
        </mxCell>
        <mxCell id="-PqnpieTWziDfPvVV64C-267" value="[dbo].[Province]" style="shape=table;startSize=30;container=1;collapsible=1;childLayout=tableLayout;fixedRows=1;rowLines=0;fontStyle=1;align=center;resizeLast=1;" vertex="1" parent="1">
          <mxGeometry x="1370" y="240" width="290" height="910" as="geometry" />
        </mxCell>
        <mxCell id="-PqnpieTWziDfPvVV64C-268" value="" style="shape=partialRectangle;collapsible=0;dropTarget=0;pointerEvents=0;fillColor=none;points=[[0,0.5],[1,0.5]];portConstraint=eastwest;top=0;left=0;right=0;bottom=0;" vertex="1" parent="-PqnpieTWziDfPvVV64C-267">
          <mxGeometry y="30" width="290" height="30" as="geometry" />
        </mxCell>
        <mxCell id="-PqnpieTWziDfPvVV64C-269" value="" style="shape=partialRectangle;overflow=hidden;connectable=0;fillColor=none;top=0;left=0;bottom=0;right=0;" vertex="1" parent="-PqnpieTWziDfPvVV64C-268">
          <mxGeometry width="30" height="30" as="geometry" />
        </mxCell>
        <mxCell id="-PqnpieTWziDfPvVV64C-270" value="[ProvinceNo] [int] NOT NULL" style="shape=partialRectangle;overflow=hidden;connectable=0;fillColor=none;top=0;left=0;bottom=0;right=0;align=left;spacingLeft=6;" vertex="1" parent="-PqnpieTWziDfPvVV64C-268">
          <mxGeometry x="30" width="260" height="30" as="geometry" />
        </mxCell>
        <mxCell id="-PqnpieTWziDfPvVV64C-271" value="" style="shape=partialRectangle;collapsible=0;dropTarget=0;pointerEvents=0;fillColor=none;points=[[0,0.5],[1,0.5]];portConstraint=eastwest;top=0;left=0;right=0;bottom=0;" vertex="1" parent="-PqnpieTWziDfPvVV64C-267">
          <mxGeometry y="60" width="290" height="30" as="geometry" />
        </mxCell>
        <mxCell id="-PqnpieTWziDfPvVV64C-272" value="" style="shape=partialRectangle;overflow=hidden;connectable=0;fillColor=none;top=0;left=0;bottom=0;right=0;" vertex="1" parent="-PqnpieTWziDfPvVV64C-271">
          <mxGeometry width="30" height="30" as="geometry" />
        </mxCell>
        <mxCell id="-PqnpieTWziDfPvVV64C-273" value="[ProvinceCd] [char](2) NOT NULL" style="shape=partialRectangle;overflow=hidden;connectable=0;fillColor=none;top=0;left=0;bottom=0;right=0;align=left;spacingLeft=6;" vertex="1" parent="-PqnpieTWziDfPvVV64C-271">
          <mxGeometry x="30" width="260" height="30" as="geometry" />
        </mxCell>
        <mxCell id="-PqnpieTWziDfPvVV64C-274" value="" style="shape=partialRectangle;collapsible=0;dropTarget=0;pointerEvents=0;fillColor=none;points=[[0,0.5],[1,0.5]];portConstraint=eastwest;top=0;left=0;right=0;bottom=0;" vertex="1" parent="-PqnpieTWziDfPvVV64C-267">
          <mxGeometry y="90" width="290" height="30" as="geometry" />
        </mxCell>
        <mxCell id="-PqnpieTWziDfPvVV64C-275" value="" style="shape=partialRectangle;overflow=hidden;connectable=0;fillColor=none;top=0;left=0;bottom=0;right=0;" vertex="1" parent="-PqnpieTWziDfPvVV64C-274">
          <mxGeometry width="30" height="30" as="geometry" />
        </mxCell>
        <mxCell id="-PqnpieTWziDfPvVV64C-276" value="[Description_E] [varchar](120) NOT NULL" style="shape=partialRectangle;overflow=hidden;connectable=0;fillColor=none;top=0;left=0;bottom=0;right=0;align=left;spacingLeft=6;" vertex="1" parent="-PqnpieTWziDfPvVV64C-274">
          <mxGeometry x="30" width="260" height="30" as="geometry" />
        </mxCell>
        <mxCell id="-PqnpieTWziDfPvVV64C-277" value="" style="shape=partialRectangle;collapsible=0;dropTarget=0;pointerEvents=0;fillColor=none;points=[[0,0.5],[1,0.5]];portConstraint=eastwest;top=0;left=0;right=0;bottom=0;" vertex="1" parent="-PqnpieTWziDfPvVV64C-267">
          <mxGeometry y="120" width="290" height="30" as="geometry" />
        </mxCell>
        <mxCell id="-PqnpieTWziDfPvVV64C-278" value="" style="shape=partialRectangle;overflow=hidden;connectable=0;fillColor=none;top=0;left=0;bottom=0;right=0;" vertex="1" parent="-PqnpieTWziDfPvVV64C-277">
          <mxGeometry width="30" height="30" as="geometry" />
        </mxCell>
        <mxCell id="-PqnpieTWziDfPvVV64C-279" value="[Description_F] [varchar](120) NOT NULL" style="shape=partialRectangle;overflow=hidden;connectable=0;fillColor=none;top=0;left=0;bottom=0;right=0;align=left;spacingLeft=6;" vertex="1" parent="-PqnpieTWziDfPvVV64C-277">
          <mxGeometry x="30" width="260" height="30" as="geometry" />
        </mxCell>
        <mxCell id="-PqnpieTWziDfPvVV64C-280" value="" style="shape=partialRectangle;collapsible=0;dropTarget=0;pointerEvents=0;fillColor=none;points=[[0,0.5],[1,0.5]];portConstraint=eastwest;top=0;left=0;right=0;bottom=0;" vertex="1" parent="-PqnpieTWziDfPvVV64C-267">
          <mxGeometry y="150" width="290" height="30" as="geometry" />
        </mxCell>
        <mxCell id="-PqnpieTWziDfPvVV64C-281" value="" style="shape=partialRectangle;overflow=hidden;connectable=0;fillColor=none;top=0;left=0;bottom=0;right=0;" vertex="1" parent="-PqnpieTWziDfPvVV64C-280">
          <mxGeometry width="30" height="30" as="geometry" />
        </mxCell>
        <mxCell id="-PqnpieTWziDfPvVV64C-282" value="[ContactName] [varchar](80) NULL" style="shape=partialRectangle;overflow=hidden;connectable=0;fillColor=none;top=0;left=0;bottom=0;right=0;align=left;spacingLeft=6;" vertex="1" parent="-PqnpieTWziDfPvVV64C-280">
          <mxGeometry x="30" width="260" height="30" as="geometry" />
        </mxCell>
        <mxCell id="-PqnpieTWziDfPvVV64C-283" value="" style="shape=partialRectangle;collapsible=0;dropTarget=0;pointerEvents=0;fillColor=none;points=[[0,0.5],[1,0.5]];portConstraint=eastwest;top=0;left=0;right=0;bottom=0;" vertex="1" parent="-PqnpieTWziDfPvVV64C-267">
          <mxGeometry y="180" width="290" height="30" as="geometry" />
        </mxCell>
        <mxCell id="-PqnpieTWziDfPvVV64C-284" value="" style="shape=partialRectangle;overflow=hidden;connectable=0;fillColor=none;top=0;left=0;bottom=0;right=0;" vertex="1" parent="-PqnpieTWziDfPvVV64C-283">
          <mxGeometry width="30" height="30" as="geometry" />
        </mxCell>
        <mxCell id="-PqnpieTWziDfPvVV64C-285" value="[AddressLine1] [varchar](80) NULL" style="shape=partialRectangle;overflow=hidden;connectable=0;fillColor=none;top=0;left=0;bottom=0;right=0;align=left;spacingLeft=6;" vertex="1" parent="-PqnpieTWziDfPvVV64C-283">
          <mxGeometry x="30" width="260" height="30" as="geometry" />
        </mxCell>
        <mxCell id="-PqnpieTWziDfPvVV64C-286" value="" style="shape=partialRectangle;collapsible=0;dropTarget=0;pointerEvents=0;fillColor=none;points=[[0,0.5],[1,0.5]];portConstraint=eastwest;top=0;left=0;right=0;bottom=0;" vertex="1" parent="-PqnpieTWziDfPvVV64C-267">
          <mxGeometry y="210" width="290" height="30" as="geometry" />
        </mxCell>
        <mxCell id="-PqnpieTWziDfPvVV64C-287" value="" style="shape=partialRectangle;overflow=hidden;connectable=0;fillColor=none;top=0;left=0;bottom=0;right=0;" vertex="1" parent="-PqnpieTWziDfPvVV64C-286">
          <mxGeometry width="30" height="30" as="geometry" />
        </mxCell>
        <mxCell id="-PqnpieTWziDfPvVV64C-288" value="[AddressLine2] [varchar](80) NULL" style="shape=partialRectangle;overflow=hidden;connectable=0;fillColor=none;top=0;left=0;bottom=0;right=0;align=left;spacingLeft=6;" vertex="1" parent="-PqnpieTWziDfPvVV64C-286">
          <mxGeometry x="30" width="260" height="30" as="geometry" />
        </mxCell>
        <mxCell id="-PqnpieTWziDfPvVV64C-289" value="" style="shape=partialRectangle;collapsible=0;dropTarget=0;pointerEvents=0;fillColor=none;points=[[0,0.5],[1,0.5]];portConstraint=eastwest;top=0;left=0;right=0;bottom=0;" vertex="1" parent="-PqnpieTWziDfPvVV64C-267">
          <mxGeometry y="240" width="290" height="30" as="geometry" />
        </mxCell>
        <mxCell id="-PqnpieTWziDfPvVV64C-290" value="" style="shape=partialRectangle;overflow=hidden;connectable=0;fillColor=none;top=0;left=0;bottom=0;right=0;" vertex="1" parent="-PqnpieTWziDfPvVV64C-289">
          <mxGeometry width="30" height="30" as="geometry" />
        </mxCell>
        <mxCell id="-PqnpieTWziDfPvVV64C-291" value="[AddressLine3] [varchar](80) NULL" style="shape=partialRectangle;overflow=hidden;connectable=0;fillColor=none;top=0;left=0;bottom=0;right=0;align=left;spacingLeft=6;" vertex="1" parent="-PqnpieTWziDfPvVV64C-289">
          <mxGeometry x="30" width="260" height="30" as="geometry" />
        </mxCell>
        <mxCell id="-PqnpieTWziDfPvVV64C-292" value="" style="shape=partialRectangle;collapsible=0;dropTarget=0;pointerEvents=0;fillColor=none;points=[[0,0.5],[1,0.5]];portConstraint=eastwest;top=0;left=0;right=0;bottom=0;" vertex="1" parent="-PqnpieTWziDfPvVV64C-267">
          <mxGeometry y="270" width="290" height="30" as="geometry" />
        </mxCell>
        <mxCell id="-PqnpieTWziDfPvVV64C-293" value="" style="shape=partialRectangle;overflow=hidden;connectable=0;fillColor=none;top=0;left=0;bottom=0;right=0;" vertex="1" parent="-PqnpieTWziDfPvVV64C-292">
          <mxGeometry width="30" height="30" as="geometry" />
        </mxCell>
        <mxCell id="-PqnpieTWziDfPvVV64C-294" value="[AddressLine4] [varchar](80) NULL" style="shape=partialRectangle;overflow=hidden;connectable=0;fillColor=none;top=0;left=0;bottom=0;right=0;align=left;spacingLeft=6;" vertex="1" parent="-PqnpieTWziDfPvVV64C-292">
          <mxGeometry x="30" width="260" height="30" as="geometry" />
        </mxCell>
        <mxCell id="-PqnpieTWziDfPvVV64C-295" value="" style="shape=partialRectangle;collapsible=0;dropTarget=0;pointerEvents=0;fillColor=none;points=[[0,0.5],[1,0.5]];portConstraint=eastwest;top=0;left=0;right=0;bottom=0;" vertex="1" parent="-PqnpieTWziDfPvVV64C-267">
          <mxGeometry y="300" width="290" height="30" as="geometry" />
        </mxCell>
        <mxCell id="-PqnpieTWziDfPvVV64C-296" value="" style="shape=partialRectangle;overflow=hidden;connectable=0;fillColor=none;top=0;left=0;bottom=0;right=0;" vertex="1" parent="-PqnpieTWziDfPvVV64C-295">
          <mxGeometry width="30" height="30" as="geometry" />
        </mxCell>
        <mxCell id="-PqnpieTWziDfPvVV64C-297" value="[AddressLine5] [varchar](80) NULL" style="shape=partialRectangle;overflow=hidden;connectable=0;fillColor=none;top=0;left=0;bottom=0;right=0;align=left;spacingLeft=6;" vertex="1" parent="-PqnpieTWziDfPvVV64C-295">
          <mxGeometry x="30" width="260" height="30" as="geometry" />
        </mxCell>
        <mxCell id="-PqnpieTWziDfPvVV64C-298" value="" style="shape=partialRectangle;collapsible=0;dropTarget=0;pointerEvents=0;fillColor=none;points=[[0,0.5],[1,0.5]];portConstraint=eastwest;top=0;left=0;right=0;bottom=0;" vertex="1" parent="-PqnpieTWziDfPvVV64C-267">
          <mxGeometry y="330" width="290" height="30" as="geometry" />
        </mxCell>
        <mxCell id="-PqnpieTWziDfPvVV64C-299" value="" style="shape=partialRectangle;overflow=hidden;connectable=0;fillColor=none;top=0;left=0;bottom=0;right=0;" vertex="1" parent="-PqnpieTWziDfPvVV64C-298">
          <mxGeometry width="30" height="30" as="geometry" />
        </mxCell>
        <mxCell id="-PqnpieTWziDfPvVV64C-300" value="[CityName] [varchar](40) NULL" style="shape=partialRectangle;overflow=hidden;connectable=0;fillColor=none;top=0;left=0;bottom=0;right=0;align=left;spacingLeft=6;" vertex="1" parent="-PqnpieTWziDfPvVV64C-298">
          <mxGeometry x="30" width="260" height="30" as="geometry" />
        </mxCell>
        <mxCell id="-PqnpieTWziDfPvVV64C-301" value="" style="shape=partialRectangle;collapsible=0;dropTarget=0;pointerEvents=0;fillColor=none;points=[[0,0.5],[1,0.5]];portConstraint=eastwest;top=0;left=0;right=0;bottom=0;" vertex="1" parent="-PqnpieTWziDfPvVV64C-267">
          <mxGeometry y="360" width="290" height="30" as="geometry" />
        </mxCell>
        <mxCell id="-PqnpieTWziDfPvVV64C-302" value="" style="shape=partialRectangle;overflow=hidden;connectable=0;fillColor=none;top=0;left=0;bottom=0;right=0;" vertex="1" parent="-PqnpieTWziDfPvVV64C-301">
          <mxGeometry width="30" height="30" as="geometry" />
        </mxCell>
        <mxCell id="-PqnpieTWziDfPvVV64C-303" value="[PostalCode] [char](6) NULL" style="shape=partialRectangle;overflow=hidden;connectable=0;fillColor=none;top=0;left=0;bottom=0;right=0;align=left;spacingLeft=6;" vertex="1" parent="-PqnpieTWziDfPvVV64C-301">
          <mxGeometry x="30" width="260" height="30" as="geometry" />
        </mxCell>
        <mxCell id="-PqnpieTWziDfPvVV64C-304" value="" style="shape=partialRectangle;collapsible=0;dropTarget=0;pointerEvents=0;fillColor=none;points=[[0,0.5],[1,0.5]];portConstraint=eastwest;top=0;left=0;right=0;bottom=0;" vertex="1" parent="-PqnpieTWziDfPvVV64C-267">
          <mxGeometry y="390" width="290" height="30" as="geometry" />
        </mxCell>
        <mxCell id="-PqnpieTWziDfPvVV64C-305" value="" style="shape=partialRectangle;overflow=hidden;connectable=0;fillColor=none;top=0;left=0;bottom=0;right=0;" vertex="1" parent="-PqnpieTWziDfPvVV64C-304">
          <mxGeometry width="30" height="30" as="geometry" />
        </mxCell>
        <mxCell id="-PqnpieTWziDfPvVV64C-306" value="[PhoneAreaCode] [char](3) NULL" style="shape=partialRectangle;overflow=hidden;connectable=0;fillColor=none;top=0;left=0;bottom=0;right=0;align=left;spacingLeft=6;" vertex="1" parent="-PqnpieTWziDfPvVV64C-304">
          <mxGeometry x="30" width="260" height="30" as="geometry" />
        </mxCell>
        <mxCell id="-PqnpieTWziDfPvVV64C-307" value="" style="shape=partialRectangle;collapsible=0;dropTarget=0;pointerEvents=0;fillColor=none;points=[[0,0.5],[1,0.5]];portConstraint=eastwest;top=0;left=0;right=0;bottom=0;" vertex="1" parent="-PqnpieTWziDfPvVV64C-267">
          <mxGeometry y="420" width="290" height="30" as="geometry" />
        </mxCell>
        <mxCell id="-PqnpieTWziDfPvVV64C-308" value="" style="shape=partialRectangle;overflow=hidden;connectable=0;fillColor=none;top=0;left=0;bottom=0;right=0;" vertex="1" parent="-PqnpieTWziDfPvVV64C-307">
          <mxGeometry width="30" height="30" as="geometry" />
        </mxCell>
        <mxCell id="-PqnpieTWziDfPvVV64C-309" value="[PhoneNumber] [char](7) NULL" style="shape=partialRectangle;overflow=hidden;connectable=0;fillColor=none;top=0;left=0;bottom=0;right=0;align=left;spacingLeft=6;" vertex="1" parent="-PqnpieTWziDfPvVV64C-307">
          <mxGeometry x="30" width="260" height="30" as="geometry" />
        </mxCell>
        <mxCell id="-PqnpieTWziDfPvVV64C-310" value="" style="shape=partialRectangle;collapsible=0;dropTarget=0;pointerEvents=0;fillColor=none;points=[[0,0.5],[1,0.5]];portConstraint=eastwest;top=0;left=0;right=0;bottom=0;" vertex="1" parent="-PqnpieTWziDfPvVV64C-267">
          <mxGeometry y="450" width="290" height="30" as="geometry" />
        </mxCell>
        <mxCell id="-PqnpieTWziDfPvVV64C-311" value="" style="shape=partialRectangle;overflow=hidden;connectable=0;fillColor=none;top=0;left=0;bottom=0;right=0;" vertex="1" parent="-PqnpieTWziDfPvVV64C-310">
          <mxGeometry width="30" height="30" as="geometry" />
        </mxCell>
        <mxCell id="-PqnpieTWziDfPvVV64C-312" value="[PhoneExtension] [char](4) NULL" style="shape=partialRectangle;overflow=hidden;connectable=0;fillColor=none;top=0;left=0;bottom=0;right=0;align=left;spacingLeft=6;" vertex="1" parent="-PqnpieTWziDfPvVV64C-310">
          <mxGeometry x="30" width="260" height="30" as="geometry" />
        </mxCell>
        <mxCell id="-PqnpieTWziDfPvVV64C-313" value="" style="shape=partialRectangle;collapsible=0;dropTarget=0;pointerEvents=0;fillColor=none;points=[[0,0.5],[1,0.5]];portConstraint=eastwest;top=0;left=0;right=0;bottom=0;" vertex="1" parent="-PqnpieTWziDfPvVV64C-267">
          <mxGeometry y="480" width="290" height="30" as="geometry" />
        </mxCell>
        <mxCell id="-PqnpieTWziDfPvVV64C-314" value="" style="shape=partialRectangle;overflow=hidden;connectable=0;fillColor=none;top=0;left=0;bottom=0;right=0;" vertex="1" parent="-PqnpieTWziDfPvVV64C-313">
          <mxGeometry width="30" height="30" as="geometry" />
        </mxCell>
        <mxCell id="-PqnpieTWziDfPvVV64C-315" value="[FaxAreaCode] [char](3) NULL" style="shape=partialRectangle;overflow=hidden;connectable=0;fillColor=none;top=0;left=0;bottom=0;right=0;align=left;spacingLeft=6;" vertex="1" parent="-PqnpieTWziDfPvVV64C-313">
          <mxGeometry x="30" width="260" height="30" as="geometry" />
        </mxCell>
        <mxCell id="-PqnpieTWziDfPvVV64C-316" value="" style="shape=partialRectangle;collapsible=0;dropTarget=0;pointerEvents=0;fillColor=none;points=[[0,0.5],[1,0.5]];portConstraint=eastwest;top=0;left=0;right=0;bottom=0;" vertex="1" parent="-PqnpieTWziDfPvVV64C-267">
          <mxGeometry y="510" width="290" height="30" as="geometry" />
        </mxCell>
        <mxCell id="-PqnpieTWziDfPvVV64C-317" value="" style="shape=partialRectangle;overflow=hidden;connectable=0;fillColor=none;top=0;left=0;bottom=0;right=0;" vertex="1" parent="-PqnpieTWziDfPvVV64C-316">
          <mxGeometry width="30" height="30" as="geometry" />
        </mxCell>
        <mxCell id="-PqnpieTWziDfPvVV64C-318" value="[FaxNumber] [char](7) NULL" style="shape=partialRectangle;overflow=hidden;connectable=0;fillColor=none;top=0;left=0;bottom=0;right=0;align=left;spacingLeft=6;" vertex="1" parent="-PqnpieTWziDfPvVV64C-316">
          <mxGeometry x="30" width="260" height="30" as="geometry" />
        </mxCell>
        <mxCell id="-PqnpieTWziDfPvVV64C-319" value="" style="shape=partialRectangle;collapsible=0;dropTarget=0;pointerEvents=0;fillColor=none;points=[[0,0.5],[1,0.5]];portConstraint=eastwest;top=0;left=0;right=0;bottom=0;" vertex="1" parent="-PqnpieTWziDfPvVV64C-267">
          <mxGeometry y="540" width="290" height="30" as="geometry" />
        </mxCell>
        <mxCell id="-PqnpieTWziDfPvVV64C-320" value="" style="shape=partialRectangle;overflow=hidden;connectable=0;fillColor=none;top=0;left=0;bottom=0;right=0;" vertex="1" parent="-PqnpieTWziDfPvVV64C-319">
          <mxGeometry width="30" height="30" as="geometry" />
        </mxCell>
        <mxCell id="-PqnpieTWziDfPvVV64C-321" value="[EMail] [varchar](40) NULL" style="shape=partialRectangle;overflow=hidden;connectable=0;fillColor=none;top=0;left=0;bottom=0;right=0;align=left;spacingLeft=6;" vertex="1" parent="-PqnpieTWziDfPvVV64C-319">
          <mxGeometry x="30" width="260" height="30" as="geometry" />
        </mxCell>
        <mxCell id="-PqnpieTWziDfPvVV64C-322" value="" style="shape=partialRectangle;collapsible=0;dropTarget=0;pointerEvents=0;fillColor=none;points=[[0,0.5],[1,0.5]];portConstraint=eastwest;top=0;left=0;right=0;bottom=0;" vertex="1" parent="-PqnpieTWziDfPvVV64C-267">
          <mxGeometry y="570" width="290" height="30" as="geometry" />
        </mxCell>
        <mxCell id="-PqnpieTWziDfPvVV64C-323" value="" style="shape=partialRectangle;overflow=hidden;connectable=0;fillColor=none;top=0;left=0;bottom=0;right=0;" vertex="1" parent="-PqnpieTWziDfPvVV64C-322">
          <mxGeometry width="30" height="30" as="geometry" />
        </mxCell>
        <mxCell id="-PqnpieTWziDfPvVV64C-324" value="[PaymentMethodCd] [char](1) NOT NULL" style="shape=partialRectangle;overflow=hidden;connectable=0;fillColor=none;top=0;left=0;bottom=0;right=0;align=left;spacingLeft=6;" vertex="1" parent="-PqnpieTWziDfPvVV64C-322">
          <mxGeometry x="30" width="260" height="30" as="geometry" />
        </mxCell>
        <mxCell id="-PqnpieTWziDfPvVV64C-325" value="" style="shape=partialRectangle;collapsible=0;dropTarget=0;pointerEvents=0;fillColor=none;points=[[0,0.5],[1,0.5]];portConstraint=eastwest;top=0;left=0;right=0;bottom=0;" vertex="1" parent="-PqnpieTWziDfPvVV64C-267">
          <mxGeometry y="600" width="290" height="30" as="geometry" />
        </mxCell>
        <mxCell id="-PqnpieTWziDfPvVV64C-326" value="" style="shape=partialRectangle;overflow=hidden;connectable=0;fillColor=none;top=0;left=0;bottom=0;right=0;" vertex="1" parent="-PqnpieTWziDfPvVV64C-325">
          <mxGeometry width="30" height="30" as="geometry" />
        </mxCell>
        <mxCell id="-PqnpieTWziDfPvVV64C-327" value="[IncludeInQuarterly] [bit] NOT NULL" style="shape=partialRectangle;overflow=hidden;connectable=0;fillColor=none;top=0;left=0;bottom=0;right=0;align=left;spacingLeft=6;" vertex="1" parent="-PqnpieTWziDfPvVV64C-325">
          <mxGeometry x="30" width="260" height="30" as="geometry" />
        </mxCell>
        <mxCell id="-PqnpieTWziDfPvVV64C-328" value="" style="shape=partialRectangle;collapsible=0;dropTarget=0;pointerEvents=0;fillColor=none;points=[[0,0.5],[1,0.5]];portConstraint=eastwest;top=0;left=0;right=0;bottom=0;" vertex="1" parent="-PqnpieTWziDfPvVV64C-267">
          <mxGeometry y="630" width="290" height="30" as="geometry" />
        </mxCell>
        <mxCell id="-PqnpieTWziDfPvVV64C-329" value="" style="shape=partialRectangle;overflow=hidden;connectable=0;fillColor=none;top=0;left=0;bottom=0;right=0;" vertex="1" parent="-PqnpieTWziDfPvVV64C-328">
          <mxGeometry width="30" height="30" as="geometry" />
        </mxCell>
        <mxCell id="-PqnpieTWziDfPvVV64C-330" value="[EffectiveStart] [datetime] NOT NULL" style="shape=partialRectangle;overflow=hidden;connectable=0;fillColor=none;top=0;left=0;bottom=0;right=0;align=left;spacingLeft=6;" vertex="1" parent="-PqnpieTWziDfPvVV64C-328">
          <mxGeometry x="30" width="260" height="30" as="geometry" />
        </mxCell>
        <mxCell id="-PqnpieTWziDfPvVV64C-331" value="" style="shape=partialRectangle;collapsible=0;dropTarget=0;pointerEvents=0;fillColor=none;points=[[0,0.5],[1,0.5]];portConstraint=eastwest;top=0;left=0;right=0;bottom=0;" vertex="1" parent="-PqnpieTWziDfPvVV64C-267">
          <mxGeometry y="660" width="290" height="30" as="geometry" />
        </mxCell>
        <mxCell id="-PqnpieTWziDfPvVV64C-332" value="" style="shape=partialRectangle;overflow=hidden;connectable=0;fillColor=none;top=0;left=0;bottom=0;right=0;" vertex="1" parent="-PqnpieTWziDfPvVV64C-331">
          <mxGeometry width="30" height="30" as="geometry" />
        </mxCell>
        <mxCell id="-PqnpieTWziDfPvVV64C-333" value="[EffectiveEnd] [datetime] NULL" style="shape=partialRectangle;overflow=hidden;connectable=0;fillColor=none;top=0;left=0;bottom=0;right=0;align=left;spacingLeft=6;" vertex="1" parent="-PqnpieTWziDfPvVV64C-331">
          <mxGeometry x="30" width="260" height="30" as="geometry" />
        </mxCell>
        <mxCell id="-PqnpieTWziDfPvVV64C-334" value="" style="shape=partialRectangle;collapsible=0;dropTarget=0;pointerEvents=0;fillColor=none;points=[[0,0.5],[1,0.5]];portConstraint=eastwest;top=0;left=0;right=0;bottom=0;" vertex="1" parent="-PqnpieTWziDfPvVV64C-267">
          <mxGeometry y="690" width="290" height="30" as="geometry" />
        </mxCell>
        <mxCell id="-PqnpieTWziDfPvVV64C-335" value="" style="shape=partialRectangle;overflow=hidden;connectable=0;fillColor=none;top=0;left=0;bottom=0;right=0;" vertex="1" parent="-PqnpieTWziDfPvVV64C-334">
          <mxGeometry width="30" height="30" as="geometry" />
        </mxCell>
        <mxCell id="-PqnpieTWziDfPvVV64C-336" value="[IsFrontendDisabled] [bit] NULL" style="shape=partialRectangle;overflow=hidden;connectable=0;fillColor=none;top=0;left=0;bottom=0;right=0;align=left;spacingLeft=6;" vertex="1" parent="-PqnpieTWziDfPvVV64C-334">
          <mxGeometry x="30" width="260" height="30" as="geometry" />
        </mxCell>
        <mxCell id="-PqnpieTWziDfPvVV64C-337" value="" style="shape=partialRectangle;collapsible=0;dropTarget=0;pointerEvents=0;fillColor=none;points=[[0,0.5],[1,0.5]];portConstraint=eastwest;top=0;left=0;right=0;bottom=0;" vertex="1" parent="-PqnpieTWziDfPvVV64C-267">
          <mxGeometry y="720" width="290" height="30" as="geometry" />
        </mxCell>
        <mxCell id="-PqnpieTWziDfPvVV64C-338" value="" style="shape=partialRectangle;overflow=hidden;connectable=0;fillColor=none;top=0;left=0;bottom=0;right=0;" vertex="1" parent="-PqnpieTWziDfPvVV64C-337">
          <mxGeometry width="30" height="30" as="geometry" />
        </mxCell>
        <mxCell id="-PqnpieTWziDfPvVV64C-339" value="[FTPFilePrefix] [char](4) NULL" style="shape=partialRectangle;overflow=hidden;connectable=0;fillColor=none;top=0;left=0;bottom=0;right=0;align=left;spacingLeft=6;" vertex="1" parent="-PqnpieTWziDfPvVV64C-337">
          <mxGeometry x="30" width="260" height="30" as="geometry" />
        </mxCell>
        <mxCell id="-PqnpieTWziDfPvVV64C-340" value="" style="shape=partialRectangle;collapsible=0;dropTarget=0;pointerEvents=0;fillColor=none;points=[[0,0.5],[1,0.5]];portConstraint=eastwest;top=0;left=0;right=0;bottom=0;" vertex="1" parent="-PqnpieTWziDfPvVV64C-267">
          <mxGeometry y="750" width="290" height="30" as="geometry" />
        </mxCell>
        <mxCell id="-PqnpieTWziDfPvVV64C-341" value="" style="shape=partialRectangle;overflow=hidden;connectable=0;fillColor=none;top=0;left=0;bottom=0;right=0;" vertex="1" parent="-PqnpieTWziDfPvVV64C-340">
          <mxGeometry width="30" height="30" as="geometry" />
        </mxCell>
        <mxCell id="-PqnpieTWziDfPvVV64C-342" value="[FTPDirectory] [varchar](120) NULL" style="shape=partialRectangle;overflow=hidden;connectable=0;fillColor=none;top=0;left=0;bottom=0;right=0;align=left;spacingLeft=6;" vertex="1" parent="-PqnpieTWziDfPvVV64C-340">
          <mxGeometry x="30" width="260" height="30" as="geometry" />
        </mxCell>
        <mxCell id="-PqnpieTWziDfPvVV64C-343" value="" style="shape=partialRectangle;collapsible=0;dropTarget=0;pointerEvents=0;fillColor=none;points=[[0,0.5],[1,0.5]];portConstraint=eastwest;top=0;left=0;right=0;bottom=0;" vertex="1" parent="-PqnpieTWziDfPvVV64C-267">
          <mxGeometry y="780" width="290" height="30" as="geometry" />
        </mxCell>
        <mxCell id="-PqnpieTWziDfPvVV64C-344" value="" style="shape=partialRectangle;overflow=hidden;connectable=0;fillColor=none;top=0;left=0;bottom=0;right=0;" vertex="1" parent="-PqnpieTWziDfPvVV64C-343">
          <mxGeometry width="30" height="30" as="geometry" />
        </mxCell>
        <mxCell id="-PqnpieTWziDfPvVV64C-345" value="[IsActive] [bit] NOT NULL" style="shape=partialRectangle;overflow=hidden;connectable=0;fillColor=none;top=0;left=0;bottom=0;right=0;align=left;spacingLeft=6;" vertex="1" parent="-PqnpieTWziDfPvVV64C-343">
          <mxGeometry x="30" width="260" height="30" as="geometry" />
        </mxCell>
        <mxCell id="-PqnpieTWziDfPvVV64C-346" value="" style="shape=partialRectangle;collapsible=0;dropTarget=0;pointerEvents=0;fillColor=none;points=[[0,0.5],[1,0.5]];portConstraint=eastwest;top=0;left=0;right=0;bottom=0;" vertex="1" parent="-PqnpieTWziDfPvVV64C-267">
          <mxGeometry y="810" width="290" height="30" as="geometry" />
        </mxCell>
        <mxCell id="-PqnpieTWziDfPvVV64C-347" value="" style="shape=partialRectangle;overflow=hidden;connectable=0;fillColor=none;top=0;left=0;bottom=0;right=0;" vertex="1" parent="-PqnpieTWziDfPvVV64C-346">
          <mxGeometry width="30" height="30" as="geometry" />
        </mxCell>
        <mxCell id="-PqnpieTWziDfPvVV64C-348" value="[VendorNumber] [varchar](25) NULL" style="shape=partialRectangle;overflow=hidden;connectable=0;fillColor=none;top=0;left=0;bottom=0;right=0;align=left;spacingLeft=6;" vertex="1" parent="-PqnpieTWziDfPvVV64C-346">
          <mxGeometry x="30" width="260" height="30" as="geometry" />
        </mxCell>
        <mxCell id="-PqnpieTWziDfPvVV64C-349" value="" style="shape=partialRectangle;collapsible=0;dropTarget=0;pointerEvents=0;fillColor=none;points=[[0,0.5],[1,0.5]];portConstraint=eastwest;top=0;left=0;right=0;bottom=1;" vertex="1" parent="-PqnpieTWziDfPvVV64C-267">
          <mxGeometry y="840" width="290" height="30" as="geometry" />
        </mxCell>
        <mxCell id="-PqnpieTWziDfPvVV64C-350" value="PK" style="shape=partialRectangle;overflow=hidden;connectable=0;fillColor=none;top=0;left=0;bottom=0;right=0;fontStyle=1;" vertex="1" parent="-PqnpieTWziDfPvVV64C-349">
          <mxGeometry width="30" height="30" as="geometry" />
        </mxCell>
        <mxCell id="-PqnpieTWziDfPvVV64C-351" value="CONSTRAINT [PK_Province]  CLUSTERED" style="shape=partialRectangle;overflow=hidden;connectable=0;fillColor=none;top=0;left=0;bottom=0;right=0;align=left;spacingLeft=6;fontStyle=5;" vertex="1" parent="-PqnpieTWziDfPvVV64C-349">
          <mxGeometry x="30" width="260" height="30" as="geometry" />
        </mxCell>
        <mxCell id="-PqnpieTWziDfPvVV64C-352" value="" style="shape=partialRectangle;collapsible=0;dropTarget=0;pointerEvents=0;fillColor=none;points=[[0,0.5],[1,0.5]];portConstraint=eastwest;top=0;left=0;right=0;bottom=0;" vertex="1" parent="-PqnpieTWziDfPvVV64C-267">
          <mxGeometry y="870" width="290" height="30" as="geometry" />
        </mxCell>
        <mxCell id="-PqnpieTWziDfPvVV64C-353" value="" style="shape=partialRectangle;overflow=hidden;connectable=0;fillColor=none;top=0;left=0;bottom=0;right=0;" vertex="1" parent="-PqnpieTWziDfPvVV64C-352">
          <mxGeometry width="30" height="30" as="geometry" />
        </mxCell>
        <mxCell id="-PqnpieTWziDfPvVV64C-354" value="[ProvinceNo] ASC" style="shape=partialRectangle;overflow=hidden;connectable=0;fillColor=none;top=0;left=0;bottom=0;right=0;align=left;spacingLeft=6;" vertex="1" parent="-PqnpieTWziDfPvVV64C-352">
          <mxGeometry x="30" width="260" height="30" as="geometry" />
        </mxCell>
        <mxCell id="-PqnpieTWziDfPvVV64C-355" value="[dbo].[Registration]" style="shape=table;startSize=30;container=1;collapsible=1;childLayout=tableLayout;fixedRows=1;rowLines=0;fontStyle=1;align=center;resizeLast=1;" vertex="1" parent="1">
          <mxGeometry x="590" y="130" width="310" height="910" as="geometry" />
        </mxCell>
        <mxCell id="-PqnpieTWziDfPvVV64C-356" value="" style="shape=partialRectangle;collapsible=0;dropTarget=0;pointerEvents=0;fillColor=none;points=[[0,0.5],[1,0.5]];portConstraint=eastwest;top=0;left=0;right=0;bottom=0;" vertex="1" parent="-PqnpieTWziDfPvVV64C-355">
          <mxGeometry y="30" width="310" height="30" as="geometry" />
        </mxCell>
        <mxCell id="-PqnpieTWziDfPvVV64C-357" value="" style="shape=partialRectangle;overflow=hidden;connectable=0;fillColor=none;top=0;left=0;bottom=0;right=0;" vertex="1" parent="-PqnpieTWziDfPvVV64C-356">
          <mxGeometry width="30" height="30" as="geometry" />
        </mxCell>
        <mxCell id="-PqnpieTWziDfPvVV64C-358" value="[RegistrationId] [int] IDENTITY(1,1) NOT NULL" style="shape=partialRectangle;overflow=hidden;connectable=0;fillColor=none;top=0;left=0;bottom=0;right=0;align=left;spacingLeft=6;" vertex="1" parent="-PqnpieTWziDfPvVV64C-356">
          <mxGeometry x="30" width="280" height="30" as="geometry" />
        </mxCell>
        <mxCell id="-PqnpieTWziDfPvVV64C-359" value="" style="shape=partialRectangle;collapsible=0;dropTarget=0;pointerEvents=0;fillColor=none;points=[[0,0.5],[1,0.5]];portConstraint=eastwest;top=0;left=0;right=0;bottom=0;" vertex="1" parent="-PqnpieTWziDfPvVV64C-355">
          <mxGeometry y="60" width="310" height="30" as="geometry" />
        </mxCell>
        <mxCell id="-PqnpieTWziDfPvVV64C-360" value="" style="shape=partialRectangle;overflow=hidden;connectable=0;fillColor=none;top=0;left=0;bottom=0;right=0;" vertex="1" parent="-PqnpieTWziDfPvVV64C-359">
          <mxGeometry width="30" height="30" as="geometry" />
        </mxCell>
        <mxCell id="-PqnpieTWziDfPvVV64C-361" value="[CourtNo] [int] NOT NULL" style="shape=partialRectangle;overflow=hidden;connectable=0;fillColor=none;top=0;left=0;bottom=0;right=0;align=left;spacingLeft=6;" vertex="1" parent="-PqnpieTWziDfPvVV64C-359">
          <mxGeometry x="30" width="280" height="30" as="geometry" />
        </mxCell>
        <mxCell id="-PqnpieTWziDfPvVV64C-362" value="" style="shape=partialRectangle;collapsible=0;dropTarget=0;pointerEvents=0;fillColor=none;points=[[0,0.5],[1,0.5]];portConstraint=eastwest;top=0;left=0;right=0;bottom=0;" vertex="1" parent="-PqnpieTWziDfPvVV64C-355">
          <mxGeometry y="90" width="310" height="30" as="geometry" />
        </mxCell>
        <mxCell id="-PqnpieTWziDfPvVV64C-363" value="" style="shape=partialRectangle;overflow=hidden;connectable=0;fillColor=none;top=0;left=0;bottom=0;right=0;" vertex="1" parent="-PqnpieTWziDfPvVV64C-362">
          <mxGeometry width="30" height="30" as="geometry" />
        </mxCell>
        <mxCell id="-PqnpieTWziDfPvVV64C-364" value="[RegNo] [int] NOT NULL" style="shape=partialRectangle;overflow=hidden;connectable=0;fillColor=none;top=0;left=0;bottom=0;right=0;align=left;spacingLeft=6;" vertex="1" parent="-PqnpieTWziDfPvVV64C-362">
          <mxGeometry x="30" width="280" height="30" as="geometry" />
        </mxCell>
        <mxCell id="-PqnpieTWziDfPvVV64C-365" value="" style="shape=partialRectangle;collapsible=0;dropTarget=0;pointerEvents=0;fillColor=none;points=[[0,0.5],[1,0.5]];portConstraint=eastwest;top=0;left=0;right=0;bottom=0;" vertex="1" parent="-PqnpieTWziDfPvVV64C-355">
          <mxGeometry y="120" width="310" height="30" as="geometry" />
        </mxCell>
        <mxCell id="-PqnpieTWziDfPvVV64C-366" value="" style="shape=partialRectangle;overflow=hidden;connectable=0;fillColor=none;top=0;left=0;bottom=0;right=0;" vertex="1" parent="-PqnpieTWziDfPvVV64C-365">
          <mxGeometry width="30" height="30" as="geometry" />
        </mxCell>
        <mxCell id="-PqnpieTWziDfPvVV64C-367" value="[OriginalCourtNo] [int] NULL" style="shape=partialRectangle;overflow=hidden;connectable=0;fillColor=none;top=0;left=0;bottom=0;right=0;align=left;spacingLeft=6;" vertex="1" parent="-PqnpieTWziDfPvVV64C-365">
          <mxGeometry x="30" width="280" height="30" as="geometry" />
        </mxCell>
        <mxCell id="-PqnpieTWziDfPvVV64C-368" value="" style="shape=partialRectangle;collapsible=0;dropTarget=0;pointerEvents=0;fillColor=none;points=[[0,0.5],[1,0.5]];portConstraint=eastwest;top=0;left=0;right=0;bottom=0;" vertex="1" parent="-PqnpieTWziDfPvVV64C-355">
          <mxGeometry y="150" width="310" height="30" as="geometry" />
        </mxCell>
        <mxCell id="-PqnpieTWziDfPvVV64C-369" value="" style="shape=partialRectangle;overflow=hidden;connectable=0;fillColor=none;top=0;left=0;bottom=0;right=0;" vertex="1" parent="-PqnpieTWziDfPvVV64C-368">
          <mxGeometry width="30" height="30" as="geometry" />
        </mxCell>
        <mxCell id="-PqnpieTWziDfPvVV64C-370" value="[OriginalRegNo] [int] NULL" style="shape=partialRectangle;overflow=hidden;connectable=0;fillColor=none;top=0;left=0;bottom=0;right=0;align=left;spacingLeft=6;" vertex="1" parent="-PqnpieTWziDfPvVV64C-368">
          <mxGeometry x="30" width="280" height="30" as="geometry" />
        </mxCell>
        <mxCell id="-PqnpieTWziDfPvVV64C-371" value="" style="shape=partialRectangle;collapsible=0;dropTarget=0;pointerEvents=0;fillColor=none;points=[[0,0.5],[1,0.5]];portConstraint=eastwest;top=0;left=0;right=0;bottom=0;" vertex="1" parent="-PqnpieTWziDfPvVV64C-355">
          <mxGeometry y="180" width="310" height="30" as="geometry" />
        </mxCell>
        <mxCell id="-PqnpieTWziDfPvVV64C-372" value="" style="shape=partialRectangle;overflow=hidden;connectable=0;fillColor=none;top=0;left=0;bottom=0;right=0;" vertex="1" parent="-PqnpieTWziDfPvVV64C-371">
          <mxGeometry width="30" height="30" as="geometry" />
        </mxCell>
        <mxCell id="-PqnpieTWziDfPvVV64C-373" value="[FeeExempted] [bit] NOT NULL" style="shape=partialRectangle;overflow=hidden;connectable=0;fillColor=none;top=0;left=0;bottom=0;right=0;align=left;spacingLeft=6;" vertex="1" parent="-PqnpieTWziDfPvVV64C-371">
          <mxGeometry x="30" width="280" height="30" as="geometry" />
        </mxCell>
        <mxCell id="-PqnpieTWziDfPvVV64C-374" value="" style="shape=partialRectangle;collapsible=0;dropTarget=0;pointerEvents=0;fillColor=none;points=[[0,0.5],[1,0.5]];portConstraint=eastwest;top=0;left=0;right=0;bottom=0;" vertex="1" parent="-PqnpieTWziDfPvVV64C-355">
          <mxGeometry y="210" width="310" height="30" as="geometry" />
        </mxCell>
        <mxCell id="-PqnpieTWziDfPvVV64C-375" value="" style="shape=partialRectangle;overflow=hidden;connectable=0;fillColor=none;top=0;left=0;bottom=0;right=0;" vertex="1" parent="-PqnpieTWziDfPvVV64C-374">
          <mxGeometry width="30" height="30" as="geometry" />
        </mxCell>
        <mxCell id="-PqnpieTWziDfPvVV64C-376" value="[DateApplicationFiled] [date] NULL" style="shape=partialRectangle;overflow=hidden;connectable=0;fillColor=none;top=0;left=0;bottom=0;right=0;align=left;spacingLeft=6;" vertex="1" parent="-PqnpieTWziDfPvVV64C-374">
          <mxGeometry x="30" width="280" height="30" as="geometry" />
        </mxCell>
        <mxCell id="-PqnpieTWziDfPvVV64C-377" value="" style="shape=partialRectangle;collapsible=0;dropTarget=0;pointerEvents=0;fillColor=none;points=[[0,0.5],[1,0.5]];portConstraint=eastwest;top=0;left=0;right=0;bottom=0;" vertex="1" parent="-PqnpieTWziDfPvVV64C-355">
          <mxGeometry y="240" width="310" height="30" as="geometry" />
        </mxCell>
        <mxCell id="-PqnpieTWziDfPvVV64C-378" value="" style="shape=partialRectangle;overflow=hidden;connectable=0;fillColor=none;top=0;left=0;bottom=0;right=0;" vertex="1" parent="-PqnpieTWziDfPvVV64C-377">
          <mxGeometry width="30" height="30" as="geometry" />
        </mxCell>
        <mxCell id="-PqnpieTWziDfPvVV64C-379" value="[DateOfMarriage] [date] NULL" style="shape=partialRectangle;overflow=hidden;connectable=0;fillColor=none;top=0;left=0;bottom=0;right=0;align=left;spacingLeft=6;" vertex="1" parent="-PqnpieTWziDfPvVV64C-377">
          <mxGeometry x="30" width="280" height="30" as="geometry" />
        </mxCell>
        <mxCell id="-PqnpieTWziDfPvVV64C-380" value="" style="shape=partialRectangle;collapsible=0;dropTarget=0;pointerEvents=0;fillColor=none;points=[[0,0.5],[1,0.5]];portConstraint=eastwest;top=0;left=0;right=0;bottom=0;" vertex="1" parent="-PqnpieTWziDfPvVV64C-355">
          <mxGeometry y="270" width="310" height="30" as="geometry" />
        </mxCell>
        <mxCell id="-PqnpieTWziDfPvVV64C-381" value="" style="shape=partialRectangle;overflow=hidden;connectable=0;fillColor=none;top=0;left=0;bottom=0;right=0;" vertex="1" parent="-PqnpieTWziDfPvVV64C-380">
          <mxGeometry width="30" height="30" as="geometry" />
        </mxCell>
        <mxCell id="-PqnpieTWziDfPvVV64C-382" value="[IsJointApplication] [bit] NULL" style="shape=partialRectangle;overflow=hidden;connectable=0;fillColor=none;top=0;left=0;bottom=0;right=0;align=left;spacingLeft=6;" vertex="1" parent="-PqnpieTWziDfPvVV64C-380">
          <mxGeometry x="30" width="280" height="30" as="geometry" />
        </mxCell>
        <mxCell id="-PqnpieTWziDfPvVV64C-383" value="" style="shape=partialRectangle;collapsible=0;dropTarget=0;pointerEvents=0;fillColor=none;points=[[0,0.5],[1,0.5]];portConstraint=eastwest;top=0;left=0;right=0;bottom=0;" vertex="1" parent="-PqnpieTWziDfPvVV64C-355">
          <mxGeometry y="300" width="310" height="30" as="geometry" />
        </mxCell>
        <mxCell id="-PqnpieTWziDfPvVV64C-384" value="" style="shape=partialRectangle;overflow=hidden;connectable=0;fillColor=none;top=0;left=0;bottom=0;right=0;" vertex="1" parent="-PqnpieTWziDfPvVV64C-383">
          <mxGeometry width="30" height="30" as="geometry" />
        </mxCell>
        <mxCell id="-PqnpieTWziDfPvVV64C-385" value="[Appl_Surname] [varchar](30) NULL" style="shape=partialRectangle;overflow=hidden;connectable=0;fillColor=none;top=0;left=0;bottom=0;right=0;align=left;spacingLeft=6;" vertex="1" parent="-PqnpieTWziDfPvVV64C-383">
          <mxGeometry x="30" width="280" height="30" as="geometry" />
        </mxCell>
        <mxCell id="-PqnpieTWziDfPvVV64C-386" value="" style="shape=partialRectangle;collapsible=0;dropTarget=0;pointerEvents=0;fillColor=none;points=[[0,0.5],[1,0.5]];portConstraint=eastwest;top=0;left=0;right=0;bottom=0;" vertex="1" parent="-PqnpieTWziDfPvVV64C-355">
          <mxGeometry y="330" width="310" height="30" as="geometry" />
        </mxCell>
        <mxCell id="-PqnpieTWziDfPvVV64C-387" value="" style="shape=partialRectangle;overflow=hidden;connectable=0;fillColor=none;top=0;left=0;bottom=0;right=0;" vertex="1" parent="-PqnpieTWziDfPvVV64C-386">
          <mxGeometry width="30" height="30" as="geometry" />
        </mxCell>
        <mxCell id="-PqnpieTWziDfPvVV64C-388" value="[Appl_GivenName] [varchar](60) NULL" style="shape=partialRectangle;overflow=hidden;connectable=0;fillColor=none;top=0;left=0;bottom=0;right=0;align=left;spacingLeft=6;" vertex="1" parent="-PqnpieTWziDfPvVV64C-386">
          <mxGeometry x="30" width="280" height="30" as="geometry" />
        </mxCell>
        <mxCell id="-PqnpieTWziDfPvVV64C-389" value="" style="shape=partialRectangle;collapsible=0;dropTarget=0;pointerEvents=0;fillColor=none;points=[[0,0.5],[1,0.5]];portConstraint=eastwest;top=0;left=0;right=0;bottom=0;" vertex="1" parent="-PqnpieTWziDfPvVV64C-355">
          <mxGeometry y="360" width="310" height="30" as="geometry" />
        </mxCell>
        <mxCell id="-PqnpieTWziDfPvVV64C-390" value="" style="shape=partialRectangle;overflow=hidden;connectable=0;fillColor=none;top=0;left=0;bottom=0;right=0;" vertex="1" parent="-PqnpieTWziDfPvVV64C-389">
          <mxGeometry width="30" height="30" as="geometry" />
        </mxCell>
        <mxCell id="-PqnpieTWziDfPvVV64C-391" value="[Appl_MiddleName] [varchar](30) NULL" style="shape=partialRectangle;overflow=hidden;connectable=0;fillColor=none;top=0;left=0;bottom=0;right=0;align=left;spacingLeft=6;" vertex="1" parent="-PqnpieTWziDfPvVV64C-389">
          <mxGeometry x="30" width="280" height="30" as="geometry" />
        </mxCell>
        <mxCell id="-PqnpieTWziDfPvVV64C-392" value="" style="shape=partialRectangle;collapsible=0;dropTarget=0;pointerEvents=0;fillColor=none;points=[[0,0.5],[1,0.5]];portConstraint=eastwest;top=0;left=0;right=0;bottom=0;" vertex="1" parent="-PqnpieTWziDfPvVV64C-355">
          <mxGeometry y="390" width="310" height="30" as="geometry" />
        </mxCell>
        <mxCell id="-PqnpieTWziDfPvVV64C-393" value="" style="shape=partialRectangle;overflow=hidden;connectable=0;fillColor=none;top=0;left=0;bottom=0;right=0;" vertex="1" parent="-PqnpieTWziDfPvVV64C-392">
          <mxGeometry width="30" height="30" as="geometry" />
        </mxCell>
        <mxCell id="-PqnpieTWziDfPvVV64C-394" value="[Appl_DateOfBirth] [date] NULL" style="shape=partialRectangle;overflow=hidden;connectable=0;fillColor=none;top=0;left=0;bottom=0;right=0;align=left;spacingLeft=6;" vertex="1" parent="-PqnpieTWziDfPvVV64C-392">
          <mxGeometry x="30" width="280" height="30" as="geometry" />
        </mxCell>
        <mxCell id="-PqnpieTWziDfPvVV64C-395" value="" style="shape=partialRectangle;collapsible=0;dropTarget=0;pointerEvents=0;fillColor=none;points=[[0,0.5],[1,0.5]];portConstraint=eastwest;top=0;left=0;right=0;bottom=0;" vertex="1" parent="-PqnpieTWziDfPvVV64C-355">
          <mxGeometry y="420" width="310" height="30" as="geometry" />
        </mxCell>
        <mxCell id="-PqnpieTWziDfPvVV64C-396" value="" style="shape=partialRectangle;overflow=hidden;connectable=0;fillColor=none;top=0;left=0;bottom=0;right=0;" vertex="1" parent="-PqnpieTWziDfPvVV64C-395">
          <mxGeometry width="30" height="30" as="geometry" />
        </mxCell>
        <mxCell id="-PqnpieTWziDfPvVV64C-397" value="[Appl_Sex] [char](1) NULL" style="shape=partialRectangle;overflow=hidden;connectable=0;fillColor=none;top=0;left=0;bottom=0;right=0;align=left;spacingLeft=6;" vertex="1" parent="-PqnpieTWziDfPvVV64C-395">
          <mxGeometry x="30" width="280" height="30" as="geometry" />
        </mxCell>
        <mxCell id="-PqnpieTWziDfPvVV64C-398" value="" style="shape=partialRectangle;collapsible=0;dropTarget=0;pointerEvents=0;fillColor=none;points=[[0,0.5],[1,0.5]];portConstraint=eastwest;top=0;left=0;right=0;bottom=0;" vertex="1" parent="-PqnpieTWziDfPvVV64C-355">
          <mxGeometry y="450" width="310" height="30" as="geometry" />
        </mxCell>
        <mxCell id="-PqnpieTWziDfPvVV64C-399" value="" style="shape=partialRectangle;overflow=hidden;connectable=0;fillColor=none;top=0;left=0;bottom=0;right=0;" vertex="1" parent="-PqnpieTWziDfPvVV64C-398">
          <mxGeometry width="30" height="30" as="geometry" />
        </mxCell>
        <mxCell id="-PqnpieTWziDfPvVV64C-400" value="[Resp_Surname] [varchar](30) NULL" style="shape=partialRectangle;overflow=hidden;connectable=0;fillColor=none;top=0;left=0;bottom=0;right=0;align=left;spacingLeft=6;" vertex="1" parent="-PqnpieTWziDfPvVV64C-398">
          <mxGeometry x="30" width="280" height="30" as="geometry" />
        </mxCell>
        <mxCell id="-PqnpieTWziDfPvVV64C-401" value="" style="shape=partialRectangle;collapsible=0;dropTarget=0;pointerEvents=0;fillColor=none;points=[[0,0.5],[1,0.5]];portConstraint=eastwest;top=0;left=0;right=0;bottom=0;" vertex="1" parent="-PqnpieTWziDfPvVV64C-355">
          <mxGeometry y="480" width="310" height="30" as="geometry" />
        </mxCell>
        <mxCell id="-PqnpieTWziDfPvVV64C-402" value="" style="shape=partialRectangle;overflow=hidden;connectable=0;fillColor=none;top=0;left=0;bottom=0;right=0;" vertex="1" parent="-PqnpieTWziDfPvVV64C-401">
          <mxGeometry width="30" height="30" as="geometry" />
        </mxCell>
        <mxCell id="-PqnpieTWziDfPvVV64C-403" value="[Resp_GivenName] [varchar](60) NULL" style="shape=partialRectangle;overflow=hidden;connectable=0;fillColor=none;top=0;left=0;bottom=0;right=0;align=left;spacingLeft=6;" vertex="1" parent="-PqnpieTWziDfPvVV64C-401">
          <mxGeometry x="30" width="280" height="30" as="geometry" />
        </mxCell>
        <mxCell id="-PqnpieTWziDfPvVV64C-404" value="" style="shape=partialRectangle;collapsible=0;dropTarget=0;pointerEvents=0;fillColor=none;points=[[0,0.5],[1,0.5]];portConstraint=eastwest;top=0;left=0;right=0;bottom=0;" vertex="1" parent="-PqnpieTWziDfPvVV64C-355">
          <mxGeometry y="510" width="310" height="30" as="geometry" />
        </mxCell>
        <mxCell id="-PqnpieTWziDfPvVV64C-405" value="" style="shape=partialRectangle;overflow=hidden;connectable=0;fillColor=none;top=0;left=0;bottom=0;right=0;" vertex="1" parent="-PqnpieTWziDfPvVV64C-404">
          <mxGeometry width="30" height="30" as="geometry" />
        </mxCell>
        <mxCell id="-PqnpieTWziDfPvVV64C-406" value="[Resp_MiddleName] [varchar](30) NULL" style="shape=partialRectangle;overflow=hidden;connectable=0;fillColor=none;top=0;left=0;bottom=0;right=0;align=left;spacingLeft=6;" vertex="1" parent="-PqnpieTWziDfPvVV64C-404">
          <mxGeometry x="30" width="280" height="30" as="geometry" />
        </mxCell>
        <mxCell id="-PqnpieTWziDfPvVV64C-407" value="" style="shape=partialRectangle;collapsible=0;dropTarget=0;pointerEvents=0;fillColor=none;points=[[0,0.5],[1,0.5]];portConstraint=eastwest;top=0;left=0;right=0;bottom=0;" vertex="1" parent="-PqnpieTWziDfPvVV64C-355">
          <mxGeometry y="540" width="310" height="30" as="geometry" />
        </mxCell>
        <mxCell id="-PqnpieTWziDfPvVV64C-408" value="" style="shape=partialRectangle;overflow=hidden;connectable=0;fillColor=none;top=0;left=0;bottom=0;right=0;" vertex="1" parent="-PqnpieTWziDfPvVV64C-407">
          <mxGeometry width="30" height="30" as="geometry" />
        </mxCell>
        <mxCell id="-PqnpieTWziDfPvVV64C-409" value="[Resp_DateOfBirth] [date] NULL" style="shape=partialRectangle;overflow=hidden;connectable=0;fillColor=none;top=0;left=0;bottom=0;right=0;align=left;spacingLeft=6;" vertex="1" parent="-PqnpieTWziDfPvVV64C-407">
          <mxGeometry x="30" width="280" height="30" as="geometry" />
        </mxCell>
        <mxCell id="-PqnpieTWziDfPvVV64C-410" value="" style="shape=partialRectangle;collapsible=0;dropTarget=0;pointerEvents=0;fillColor=none;points=[[0,0.5],[1,0.5]];portConstraint=eastwest;top=0;left=0;right=0;bottom=0;" vertex="1" parent="-PqnpieTWziDfPvVV64C-355">
          <mxGeometry y="570" width="310" height="30" as="geometry" />
        </mxCell>
        <mxCell id="-PqnpieTWziDfPvVV64C-411" value="" style="shape=partialRectangle;overflow=hidden;connectable=0;fillColor=none;top=0;left=0;bottom=0;right=0;" vertex="1" parent="-PqnpieTWziDfPvVV64C-410">
          <mxGeometry width="30" height="30" as="geometry" />
        </mxCell>
        <mxCell id="-PqnpieTWziDfPvVV64C-412" value="[Resp_Sex] [char](1) NULL" style="shape=partialRectangle;overflow=hidden;connectable=0;fillColor=none;top=0;left=0;bottom=0;right=0;align=left;spacingLeft=6;" vertex="1" parent="-PqnpieTWziDfPvVV64C-410">
          <mxGeometry x="30" width="280" height="30" as="geometry" />
        </mxCell>
        <mxCell id="-PqnpieTWziDfPvVV64C-413" value="" style="shape=partialRectangle;collapsible=0;dropTarget=0;pointerEvents=0;fillColor=none;points=[[0,0.5],[1,0.5]];portConstraint=eastwest;top=0;left=0;right=0;bottom=0;" vertex="1" parent="-PqnpieTWziDfPvVV64C-355">
          <mxGeometry y="600" width="310" height="30" as="geometry" />
        </mxCell>
        <mxCell id="-PqnpieTWziDfPvVV64C-414" value="" style="shape=partialRectangle;overflow=hidden;connectable=0;fillColor=none;top=0;left=0;bottom=0;right=0;" vertex="1" parent="-PqnpieTWziDfPvVV64C-413">
          <mxGeometry width="30" height="30" as="geometry" />
        </mxCell>
        <mxCell id="-PqnpieTWziDfPvVV64C-415" value="[DateSigned] [date] NULL" style="shape=partialRectangle;overflow=hidden;connectable=0;fillColor=none;top=0;left=0;bottom=0;right=0;align=left;spacingLeft=6;" vertex="1" parent="-PqnpieTWziDfPvVV64C-413">
          <mxGeometry x="30" width="280" height="30" as="geometry" />
        </mxCell>
        <mxCell id="-PqnpieTWziDfPvVV64C-416" value="" style="shape=partialRectangle;collapsible=0;dropTarget=0;pointerEvents=0;fillColor=none;points=[[0,0.5],[1,0.5]];portConstraint=eastwest;top=0;left=0;right=0;bottom=0;" vertex="1" parent="-PqnpieTWziDfPvVV64C-355">
          <mxGeometry y="630" width="310" height="30" as="geometry" />
        </mxCell>
        <mxCell id="-PqnpieTWziDfPvVV64C-417" value="" style="shape=partialRectangle;overflow=hidden;connectable=0;fillColor=none;top=0;left=0;bottom=0;right=0;" vertex="1" parent="-PqnpieTWziDfPvVV64C-416">
          <mxGeometry width="30" height="30" as="geometry" />
        </mxCell>
        <mxCell id="-PqnpieTWziDfPvVV64C-418" value="[ApplicationStateCd] [int] NOT NULL" style="shape=partialRectangle;overflow=hidden;connectable=0;fillColor=none;top=0;left=0;bottom=0;right=0;align=left;spacingLeft=6;" vertex="1" parent="-PqnpieTWziDfPvVV64C-416">
          <mxGeometry x="30" width="280" height="30" as="geometry" />
        </mxCell>
        <mxCell id="-PqnpieTWziDfPvVV64C-419" value="" style="shape=partialRectangle;collapsible=0;dropTarget=0;pointerEvents=0;fillColor=none;points=[[0,0.5],[1,0.5]];portConstraint=eastwest;top=0;left=0;right=0;bottom=0;" vertex="1" parent="-PqnpieTWziDfPvVV64C-355">
          <mxGeometry y="660" width="310" height="30" as="geometry" />
        </mxCell>
        <mxCell id="-PqnpieTWziDfPvVV64C-420" value="" style="shape=partialRectangle;overflow=hidden;connectable=0;fillColor=none;top=0;left=0;bottom=0;right=0;" vertex="1" parent="-PqnpieTWziDfPvVV64C-419">
          <mxGeometry width="30" height="30" as="geometry" />
        </mxCell>
        <mxCell id="-PqnpieTWziDfPvVV64C-421" value="[CreatedBySubmCd] [char](10) NOT NULL" style="shape=partialRectangle;overflow=hidden;connectable=0;fillColor=none;top=0;left=0;bottom=0;right=0;align=left;spacingLeft=6;" vertex="1" parent="-PqnpieTWziDfPvVV64C-419">
          <mxGeometry x="30" width="280" height="30" as="geometry" />
        </mxCell>
        <mxCell id="-PqnpieTWziDfPvVV64C-422" value="" style="shape=partialRectangle;collapsible=0;dropTarget=0;pointerEvents=0;fillColor=none;points=[[0,0.5],[1,0.5]];portConstraint=eastwest;top=0;left=0;right=0;bottom=0;" vertex="1" parent="-PqnpieTWziDfPvVV64C-355">
          <mxGeometry y="690" width="310" height="30" as="geometry" />
        </mxCell>
        <mxCell id="-PqnpieTWziDfPvVV64C-423" value="" style="shape=partialRectangle;overflow=hidden;connectable=0;fillColor=none;top=0;left=0;bottom=0;right=0;" vertex="1" parent="-PqnpieTWziDfPvVV64C-422">
          <mxGeometry width="30" height="30" as="geometry" />
        </mxCell>
        <mxCell id="-PqnpieTWziDfPvVV64C-424" value="[Created] [datetime] NOT NULL" style="shape=partialRectangle;overflow=hidden;connectable=0;fillColor=none;top=0;left=0;bottom=0;right=0;align=left;spacingLeft=6;" vertex="1" parent="-PqnpieTWziDfPvVV64C-422">
          <mxGeometry x="30" width="280" height="30" as="geometry" />
        </mxCell>
        <mxCell id="-PqnpieTWziDfPvVV64C-425" value="" style="shape=partialRectangle;collapsible=0;dropTarget=0;pointerEvents=0;fillColor=none;points=[[0,0.5],[1,0.5]];portConstraint=eastwest;top=0;left=0;right=0;bottom=0;" vertex="1" parent="-PqnpieTWziDfPvVV64C-355">
          <mxGeometry y="720" width="310" height="30" as="geometry" />
        </mxCell>
        <mxCell id="-PqnpieTWziDfPvVV64C-426" value="" style="shape=partialRectangle;overflow=hidden;connectable=0;fillColor=none;top=0;left=0;bottom=0;right=0;" vertex="1" parent="-PqnpieTWziDfPvVV64C-425">
          <mxGeometry width="30" height="30" as="geometry" />
        </mxCell>
        <mxCell id="-PqnpieTWziDfPvVV64C-427" value="[LastModifiedBySubmCd] [char](10) NOT NULL" style="shape=partialRectangle;overflow=hidden;connectable=0;fillColor=none;top=0;left=0;bottom=0;right=0;align=left;spacingLeft=6;" vertex="1" parent="-PqnpieTWziDfPvVV64C-425">
          <mxGeometry x="30" width="280" height="30" as="geometry" />
        </mxCell>
        <mxCell id="-PqnpieTWziDfPvVV64C-428" value="" style="shape=partialRectangle;collapsible=0;dropTarget=0;pointerEvents=0;fillColor=none;points=[[0,0.5],[1,0.5]];portConstraint=eastwest;top=0;left=0;right=0;bottom=0;" vertex="1" parent="-PqnpieTWziDfPvVV64C-355">
          <mxGeometry y="750" width="310" height="30" as="geometry" />
        </mxCell>
        <mxCell id="-PqnpieTWziDfPvVV64C-429" value="" style="shape=partialRectangle;overflow=hidden;connectable=0;fillColor=none;top=0;left=0;bottom=0;right=0;" vertex="1" parent="-PqnpieTWziDfPvVV64C-428">
          <mxGeometry width="30" height="30" as="geometry" />
        </mxCell>
        <mxCell id="-PqnpieTWziDfPvVV64C-430" value="[LastModified] [datetime] NOT NULL" style="shape=partialRectangle;overflow=hidden;connectable=0;fillColor=none;top=0;left=0;bottom=0;right=0;align=left;spacingLeft=6;" vertex="1" parent="-PqnpieTWziDfPvVV64C-428">
          <mxGeometry x="30" width="280" height="30" as="geometry" />
        </mxCell>
        <mxCell id="-PqnpieTWziDfPvVV64C-431" value="" style="shape=partialRectangle;collapsible=0;dropTarget=0;pointerEvents=0;fillColor=none;points=[[0,0.5],[1,0.5]];portConstraint=eastwest;top=0;left=0;right=0;bottom=0;" vertex="1" parent="-PqnpieTWziDfPvVV64C-355">
          <mxGeometry y="780" width="310" height="30" as="geometry" />
        </mxCell>
        <mxCell id="-PqnpieTWziDfPvVV64C-432" value="" style="shape=partialRectangle;overflow=hidden;connectable=0;fillColor=none;top=0;left=0;bottom=0;right=0;" vertex="1" parent="-PqnpieTWziDfPvVV64C-431">
          <mxGeometry width="30" height="30" as="geometry" />
        </mxCell>
        <mxCell id="-PqnpieTWziDfPvVV64C-433" value="[DateApplicationValid] [date] NULL" style="shape=partialRectangle;overflow=hidden;connectable=0;fillColor=none;top=0;left=0;bottom=0;right=0;align=left;spacingLeft=6;" vertex="1" parent="-PqnpieTWziDfPvVV64C-431">
          <mxGeometry x="30" width="280" height="30" as="geometry" />
        </mxCell>
        <mxCell id="-PqnpieTWziDfPvVV64C-434" value="" style="shape=partialRectangle;collapsible=0;dropTarget=0;pointerEvents=0;fillColor=none;points=[[0,0.5],[1,0.5]];portConstraint=eastwest;top=0;left=0;right=0;bottom=0;" vertex="1" parent="-PqnpieTWziDfPvVV64C-355">
          <mxGeometry y="810" width="310" height="30" as="geometry" />
        </mxCell>
        <mxCell id="-PqnpieTWziDfPvVV64C-435" value="" style="shape=partialRectangle;overflow=hidden;connectable=0;fillColor=none;top=0;left=0;bottom=0;right=0;" vertex="1" parent="-PqnpieTWziDfPvVV64C-434">
          <mxGeometry width="30" height="30" as="geometry" />
        </mxCell>
        <mxCell id="-PqnpieTWziDfPvVV64C-436" value="[SourceCaseNumber] [varchar](50) NULL" style="shape=partialRectangle;overflow=hidden;connectable=0;fillColor=none;top=0;left=0;bottom=0;right=0;align=left;spacingLeft=6;" vertex="1" parent="-PqnpieTWziDfPvVV64C-434">
          <mxGeometry x="30" width="280" height="30" as="geometry" />
        </mxCell>
        <mxCell id="-PqnpieTWziDfPvVV64C-437" value="" style="shape=partialRectangle;collapsible=0;dropTarget=0;pointerEvents=0;fillColor=none;points=[[0,0.5],[1,0.5]];portConstraint=eastwest;top=0;left=0;right=0;bottom=1;" vertex="1" parent="-PqnpieTWziDfPvVV64C-355">
          <mxGeometry y="840" width="310" height="30" as="geometry" />
        </mxCell>
        <mxCell id="-PqnpieTWziDfPvVV64C-438" value="PK" style="shape=partialRectangle;overflow=hidden;connectable=0;fillColor=none;top=0;left=0;bottom=0;right=0;fontStyle=1;" vertex="1" parent="-PqnpieTWziDfPvVV64C-437">
          <mxGeometry width="30" height="30" as="geometry" />
        </mxCell>
        <mxCell id="-PqnpieTWziDfPvVV64C-439" value="CONSTRAINT [PK_REG_FROM]  CLUSTERED" style="shape=partialRectangle;overflow=hidden;connectable=0;fillColor=none;top=0;left=0;bottom=0;right=0;align=left;spacingLeft=6;fontStyle=5;" vertex="1" parent="-PqnpieTWziDfPvVV64C-437">
          <mxGeometry x="30" width="280" height="30" as="geometry" />
        </mxCell>
        <mxCell id="-PqnpieTWziDfPvVV64C-440" value="" style="shape=partialRectangle;collapsible=0;dropTarget=0;pointerEvents=0;fillColor=none;points=[[0,0.5],[1,0.5]];portConstraint=eastwest;top=0;left=0;right=0;bottom=0;" vertex="1" parent="-PqnpieTWziDfPvVV64C-355">
          <mxGeometry y="870" width="310" height="30" as="geometry" />
        </mxCell>
        <mxCell id="-PqnpieTWziDfPvVV64C-441" value="" style="shape=partialRectangle;overflow=hidden;connectable=0;fillColor=none;top=0;left=0;bottom=0;right=0;" vertex="1" parent="-PqnpieTWziDfPvVV64C-440">
          <mxGeometry width="30" height="30" as="geometry" />
        </mxCell>
        <mxCell id="-PqnpieTWziDfPvVV64C-442" value="[RegistrationId] ASC" style="shape=partialRectangle;overflow=hidden;connectable=0;fillColor=none;top=0;left=0;bottom=0;right=0;align=left;spacingLeft=6;" vertex="1" parent="-PqnpieTWziDfPvVV64C-440">
          <mxGeometry x="30" width="280" height="30" as="geometry" />
        </mxCell>
        <mxCell id="-PqnpieTWziDfPvVV64C-588" value="[dbo].[Subm]" style="shape=table;startSize=30;container=1;collapsible=1;childLayout=tableLayout;fixedRows=1;rowLines=0;fontStyle=1;align=center;resizeLast=1;" vertex="1" parent="1">
          <mxGeometry x="595" y="1110" width="300" height="910" as="geometry" />
        </mxCell>
        <mxCell id="-PqnpieTWziDfPvVV64C-589" value="" style="shape=partialRectangle;collapsible=0;dropTarget=0;pointerEvents=0;fillColor=none;points=[[0,0.5],[1,0.5]];portConstraint=eastwest;top=0;left=0;right=0;bottom=0;" vertex="1" parent="-PqnpieTWziDfPvVV64C-588">
          <mxGeometry y="30" width="300" height="30" as="geometry" />
        </mxCell>
        <mxCell id="-PqnpieTWziDfPvVV64C-590" value="" style="shape=partialRectangle;overflow=hidden;connectable=0;fillColor=none;top=0;left=0;bottom=0;right=0;" vertex="1" parent="-PqnpieTWziDfPvVV64C-589">
          <mxGeometry width="30" height="30" as="geometry" />
        </mxCell>
        <mxCell id="-PqnpieTWziDfPvVV64C-591" value="[SubmCd] [char](10) NOT NULL" style="shape=partialRectangle;overflow=hidden;connectable=0;fillColor=none;top=0;left=0;bottom=0;right=0;align=left;spacingLeft=6;" vertex="1" parent="-PqnpieTWziDfPvVV64C-589">
          <mxGeometry x="30" width="270" height="30" as="geometry" />
        </mxCell>
        <mxCell id="-PqnpieTWziDfPvVV64C-592" value="" style="shape=partialRectangle;collapsible=0;dropTarget=0;pointerEvents=0;fillColor=none;points=[[0,0.5],[1,0.5]];portConstraint=eastwest;top=0;left=0;right=0;bottom=0;" vertex="1" parent="-PqnpieTWziDfPvVV64C-588">
          <mxGeometry y="60" width="300" height="30" as="geometry" />
        </mxCell>
        <mxCell id="-PqnpieTWziDfPvVV64C-593" value="" style="shape=partialRectangle;overflow=hidden;connectable=0;fillColor=none;top=0;left=0;bottom=0;right=0;" vertex="1" parent="-PqnpieTWziDfPvVV64C-592">
          <mxGeometry width="30" height="30" as="geometry" />
        </mxCell>
        <mxCell id="-PqnpieTWziDfPvVV64C-594" value="[Title] [varchar](30) NOT NULL" style="shape=partialRectangle;overflow=hidden;connectable=0;fillColor=none;top=0;left=0;bottom=0;right=0;align=left;spacingLeft=6;" vertex="1" parent="-PqnpieTWziDfPvVV64C-592">
          <mxGeometry x="30" width="270" height="30" as="geometry" />
        </mxCell>
        <mxCell id="-PqnpieTWziDfPvVV64C-595" value="" style="shape=partialRectangle;collapsible=0;dropTarget=0;pointerEvents=0;fillColor=none;points=[[0,0.5],[1,0.5]];portConstraint=eastwest;top=0;left=0;right=0;bottom=0;" vertex="1" parent="-PqnpieTWziDfPvVV64C-588">
          <mxGeometry y="90" width="300" height="30" as="geometry" />
        </mxCell>
        <mxCell id="-PqnpieTWziDfPvVV64C-596" value="" style="shape=partialRectangle;overflow=hidden;connectable=0;fillColor=none;top=0;left=0;bottom=0;right=0;" vertex="1" parent="-PqnpieTWziDfPvVV64C-595">
          <mxGeometry width="30" height="30" as="geometry" />
        </mxCell>
        <mxCell id="-PqnpieTWziDfPvVV64C-597" value="[Surname] [varchar](30) NOT NULL" style="shape=partialRectangle;overflow=hidden;connectable=0;fillColor=none;top=0;left=0;bottom=0;right=0;align=left;spacingLeft=6;" vertex="1" parent="-PqnpieTWziDfPvVV64C-595">
          <mxGeometry x="30" width="270" height="30" as="geometry" />
        </mxCell>
        <mxCell id="-PqnpieTWziDfPvVV64C-598" value="" style="shape=partialRectangle;collapsible=0;dropTarget=0;pointerEvents=0;fillColor=none;points=[[0,0.5],[1,0.5]];portConstraint=eastwest;top=0;left=0;right=0;bottom=0;" vertex="1" parent="-PqnpieTWziDfPvVV64C-588">
          <mxGeometry y="120" width="300" height="30" as="geometry" />
        </mxCell>
        <mxCell id="-PqnpieTWziDfPvVV64C-599" value="" style="shape=partialRectangle;overflow=hidden;connectable=0;fillColor=none;top=0;left=0;bottom=0;right=0;" vertex="1" parent="-PqnpieTWziDfPvVV64C-598">
          <mxGeometry width="30" height="30" as="geometry" />
        </mxCell>
        <mxCell id="-PqnpieTWziDfPvVV64C-600" value="[GivenName] [varchar](20) NOT NULL" style="shape=partialRectangle;overflow=hidden;connectable=0;fillColor=none;top=0;left=0;bottom=0;right=0;align=left;spacingLeft=6;" vertex="1" parent="-PqnpieTWziDfPvVV64C-598">
          <mxGeometry x="30" width="270" height="30" as="geometry" />
        </mxCell>
        <mxCell id="-PqnpieTWziDfPvVV64C-601" value="" style="shape=partialRectangle;collapsible=0;dropTarget=0;pointerEvents=0;fillColor=none;points=[[0,0.5],[1,0.5]];portConstraint=eastwest;top=0;left=0;right=0;bottom=0;" vertex="1" parent="-PqnpieTWziDfPvVV64C-588">
          <mxGeometry y="150" width="300" height="30" as="geometry" />
        </mxCell>
        <mxCell id="-PqnpieTWziDfPvVV64C-602" value="" style="shape=partialRectangle;overflow=hidden;connectable=0;fillColor=none;top=0;left=0;bottom=0;right=0;" vertex="1" parent="-PqnpieTWziDfPvVV64C-601">
          <mxGeometry width="30" height="30" as="geometry" />
        </mxCell>
        <mxCell id="-PqnpieTWziDfPvVV64C-603" value="[MiddleName] [varchar](20) NULL" style="shape=partialRectangle;overflow=hidden;connectable=0;fillColor=none;top=0;left=0;bottom=0;right=0;align=left;spacingLeft=6;" vertex="1" parent="-PqnpieTWziDfPvVV64C-601">
          <mxGeometry x="30" width="270" height="30" as="geometry" />
        </mxCell>
        <mxCell id="-PqnpieTWziDfPvVV64C-604" value="" style="shape=partialRectangle;collapsible=0;dropTarget=0;pointerEvents=0;fillColor=none;points=[[0,0.5],[1,0.5]];portConstraint=eastwest;top=0;left=0;right=0;bottom=0;" vertex="1" parent="-PqnpieTWziDfPvVV64C-588">
          <mxGeometry y="180" width="300" height="30" as="geometry" />
        </mxCell>
        <mxCell id="-PqnpieTWziDfPvVV64C-605" value="" style="shape=partialRectangle;overflow=hidden;connectable=0;fillColor=none;top=0;left=0;bottom=0;right=0;" vertex="1" parent="-PqnpieTWziDfPvVV64C-604">
          <mxGeometry width="30" height="30" as="geometry" />
        </mxCell>
        <mxCell id="-PqnpieTWziDfPvVV64C-606" value="[PhoneAreaCode] [char](3) NULL" style="shape=partialRectangle;overflow=hidden;connectable=0;fillColor=none;top=0;left=0;bottom=0;right=0;align=left;spacingLeft=6;" vertex="1" parent="-PqnpieTWziDfPvVV64C-604">
          <mxGeometry x="30" width="270" height="30" as="geometry" />
        </mxCell>
        <mxCell id="-PqnpieTWziDfPvVV64C-607" value="" style="shape=partialRectangle;collapsible=0;dropTarget=0;pointerEvents=0;fillColor=none;points=[[0,0.5],[1,0.5]];portConstraint=eastwest;top=0;left=0;right=0;bottom=0;" vertex="1" parent="-PqnpieTWziDfPvVV64C-588">
          <mxGeometry y="210" width="300" height="30" as="geometry" />
        </mxCell>
        <mxCell id="-PqnpieTWziDfPvVV64C-608" value="" style="shape=partialRectangle;overflow=hidden;connectable=0;fillColor=none;top=0;left=0;bottom=0;right=0;" vertex="1" parent="-PqnpieTWziDfPvVV64C-607">
          <mxGeometry width="30" height="30" as="geometry" />
        </mxCell>
        <mxCell id="-PqnpieTWziDfPvVV64C-609" value="[PhoneNumber] [char](8) NULL" style="shape=partialRectangle;overflow=hidden;connectable=0;fillColor=none;top=0;left=0;bottom=0;right=0;align=left;spacingLeft=6;" vertex="1" parent="-PqnpieTWziDfPvVV64C-607">
          <mxGeometry x="30" width="270" height="30" as="geometry" />
        </mxCell>
        <mxCell id="-PqnpieTWziDfPvVV64C-610" value="" style="shape=partialRectangle;collapsible=0;dropTarget=0;pointerEvents=0;fillColor=none;points=[[0,0.5],[1,0.5]];portConstraint=eastwest;top=0;left=0;right=0;bottom=0;" vertex="1" parent="-PqnpieTWziDfPvVV64C-588">
          <mxGeometry y="240" width="300" height="30" as="geometry" />
        </mxCell>
        <mxCell id="-PqnpieTWziDfPvVV64C-611" value="" style="shape=partialRectangle;overflow=hidden;connectable=0;fillColor=none;top=0;left=0;bottom=0;right=0;" vertex="1" parent="-PqnpieTWziDfPvVV64C-610">
          <mxGeometry width="30" height="30" as="geometry" />
        </mxCell>
        <mxCell id="-PqnpieTWziDfPvVV64C-612" value="[PhoneExtension] [char](4) NULL" style="shape=partialRectangle;overflow=hidden;connectable=0;fillColor=none;top=0;left=0;bottom=0;right=0;align=left;spacingLeft=6;" vertex="1" parent="-PqnpieTWziDfPvVV64C-610">
          <mxGeometry x="30" width="270" height="30" as="geometry" />
        </mxCell>
        <mxCell id="-PqnpieTWziDfPvVV64C-613" value="" style="shape=partialRectangle;collapsible=0;dropTarget=0;pointerEvents=0;fillColor=none;points=[[0,0.5],[1,0.5]];portConstraint=eastwest;top=0;left=0;right=0;bottom=0;" vertex="1" parent="-PqnpieTWziDfPvVV64C-588">
          <mxGeometry y="270" width="300" height="30" as="geometry" />
        </mxCell>
        <mxCell id="-PqnpieTWziDfPvVV64C-614" value="" style="shape=partialRectangle;overflow=hidden;connectable=0;fillColor=none;top=0;left=0;bottom=0;right=0;" vertex="1" parent="-PqnpieTWziDfPvVV64C-613">
          <mxGeometry width="30" height="30" as="geometry" />
        </mxCell>
        <mxCell id="-PqnpieTWziDfPvVV64C-615" value="[FaxAreaCode] [char](3) NULL" style="shape=partialRectangle;overflow=hidden;connectable=0;fillColor=none;top=0;left=0;bottom=0;right=0;align=left;spacingLeft=6;" vertex="1" parent="-PqnpieTWziDfPvVV64C-613">
          <mxGeometry x="30" width="270" height="30" as="geometry" />
        </mxCell>
        <mxCell id="-PqnpieTWziDfPvVV64C-616" value="" style="shape=partialRectangle;collapsible=0;dropTarget=0;pointerEvents=0;fillColor=none;points=[[0,0.5],[1,0.5]];portConstraint=eastwest;top=0;left=0;right=0;bottom=0;" vertex="1" parent="-PqnpieTWziDfPvVV64C-588">
          <mxGeometry y="300" width="300" height="30" as="geometry" />
        </mxCell>
        <mxCell id="-PqnpieTWziDfPvVV64C-617" value="" style="shape=partialRectangle;overflow=hidden;connectable=0;fillColor=none;top=0;left=0;bottom=0;right=0;" vertex="1" parent="-PqnpieTWziDfPvVV64C-616">
          <mxGeometry width="30" height="30" as="geometry" />
        </mxCell>
        <mxCell id="-PqnpieTWziDfPvVV64C-618" value="[FaxNumber] [char](8) NULL" style="shape=partialRectangle;overflow=hidden;connectable=0;fillColor=none;top=0;left=0;bottom=0;right=0;align=left;spacingLeft=6;" vertex="1" parent="-PqnpieTWziDfPvVV64C-616">
          <mxGeometry x="30" width="270" height="30" as="geometry" />
        </mxCell>
        <mxCell id="-PqnpieTWziDfPvVV64C-619" value="" style="shape=partialRectangle;collapsible=0;dropTarget=0;pointerEvents=0;fillColor=none;points=[[0,0.5],[1,0.5]];portConstraint=eastwest;top=0;left=0;right=0;bottom=0;" vertex="1" parent="-PqnpieTWziDfPvVV64C-588">
          <mxGeometry y="330" width="300" height="30" as="geometry" />
        </mxCell>
        <mxCell id="-PqnpieTWziDfPvVV64C-620" value="" style="shape=partialRectangle;overflow=hidden;connectable=0;fillColor=none;top=0;left=0;bottom=0;right=0;" vertex="1" parent="-PqnpieTWziDfPvVV64C-619">
          <mxGeometry width="30" height="30" as="geometry" />
        </mxCell>
        <mxCell id="-PqnpieTWziDfPvVV64C-621" value="[LanguageCode] [char](1) NULL" style="shape=partialRectangle;overflow=hidden;connectable=0;fillColor=none;top=0;left=0;bottom=0;right=0;align=left;spacingLeft=6;" vertex="1" parent="-PqnpieTWziDfPvVV64C-619">
          <mxGeometry x="30" width="270" height="30" as="geometry" />
        </mxCell>
        <mxCell id="-PqnpieTWziDfPvVV64C-622" value="" style="shape=partialRectangle;collapsible=0;dropTarget=0;pointerEvents=0;fillColor=none;points=[[0,0.5],[1,0.5]];portConstraint=eastwest;top=0;left=0;right=0;bottom=0;" vertex="1" parent="-PqnpieTWziDfPvVV64C-588">
          <mxGeometry y="360" width="300" height="30" as="geometry" />
        </mxCell>
        <mxCell id="-PqnpieTWziDfPvVV64C-623" value="" style="shape=partialRectangle;overflow=hidden;connectable=0;fillColor=none;top=0;left=0;bottom=0;right=0;" vertex="1" parent="-PqnpieTWziDfPvVV64C-622">
          <mxGeometry width="30" height="30" as="geometry" />
        </mxCell>
        <mxCell id="-PqnpieTWziDfPvVV64C-624" value="[EMail] [varchar](40) NULL" style="shape=partialRectangle;overflow=hidden;connectable=0;fillColor=none;top=0;left=0;bottom=0;right=0;align=left;spacingLeft=6;" vertex="1" parent="-PqnpieTWziDfPvVV64C-622">
          <mxGeometry x="30" width="270" height="30" as="geometry" />
        </mxCell>
        <mxCell id="-PqnpieTWziDfPvVV64C-625" value="" style="shape=partialRectangle;collapsible=0;dropTarget=0;pointerEvents=0;fillColor=none;points=[[0,0.5],[1,0.5]];portConstraint=eastwest;top=0;left=0;right=0;bottom=0;" vertex="1" parent="-PqnpieTWziDfPvVV64C-588">
          <mxGeometry y="390" width="300" height="30" as="geometry" />
        </mxCell>
        <mxCell id="-PqnpieTWziDfPvVV64C-626" value="" style="shape=partialRectangle;overflow=hidden;connectable=0;fillColor=none;top=0;left=0;bottom=0;right=0;" vertex="1" parent="-PqnpieTWziDfPvVV64C-625">
          <mxGeometry width="30" height="30" as="geometry" />
        </mxCell>
        <mxCell id="-PqnpieTWziDfPvVV64C-627" value="[LastLogin] [datetime] NULL" style="shape=partialRectangle;overflow=hidden;connectable=0;fillColor=none;top=0;left=0;bottom=0;right=0;align=left;spacingLeft=6;" vertex="1" parent="-PqnpieTWziDfPvVV64C-625">
          <mxGeometry x="30" width="270" height="30" as="geometry" />
        </mxCell>
        <mxCell id="-PqnpieTWziDfPvVV64C-628" value="" style="shape=partialRectangle;collapsible=0;dropTarget=0;pointerEvents=0;fillColor=none;points=[[0,0.5],[1,0.5]];portConstraint=eastwest;top=0;left=0;right=0;bottom=0;" vertex="1" parent="-PqnpieTWziDfPvVV64C-588">
          <mxGeometry y="420" width="300" height="30" as="geometry" />
        </mxCell>
        <mxCell id="-PqnpieTWziDfPvVV64C-629" value="" style="shape=partialRectangle;overflow=hidden;connectable=0;fillColor=none;top=0;left=0;bottom=0;right=0;" vertex="1" parent="-PqnpieTWziDfPvVV64C-628">
          <mxGeometry width="30" height="30" as="geometry" />
        </mxCell>
        <mxCell id="-PqnpieTWziDfPvVV64C-630" value="[LastPasswordUpdate] [datetime] NULL" style="shape=partialRectangle;overflow=hidden;connectable=0;fillColor=none;top=0;left=0;bottom=0;right=0;align=left;spacingLeft=6;" vertex="1" parent="-PqnpieTWziDfPvVV64C-628">
          <mxGeometry x="30" width="270" height="30" as="geometry" />
        </mxCell>
        <mxCell id="-PqnpieTWziDfPvVV64C-631" value="" style="shape=partialRectangle;collapsible=0;dropTarget=0;pointerEvents=0;fillColor=none;points=[[0,0.5],[1,0.5]];portConstraint=eastwest;top=0;left=0;right=0;bottom=0;" vertex="1" parent="-PqnpieTWziDfPvVV64C-588">
          <mxGeometry y="450" width="300" height="30" as="geometry" />
        </mxCell>
        <mxCell id="-PqnpieTWziDfPvVV64C-632" value="" style="shape=partialRectangle;overflow=hidden;connectable=0;fillColor=none;top=0;left=0;bottom=0;right=0;" vertex="1" parent="-PqnpieTWziDfPvVV64C-631">
          <mxGeometry width="30" height="30" as="geometry" />
        </mxCell>
        <mxCell id="-PqnpieTWziDfPvVV64C-633" value="[Password] [varchar](256) NULL" style="shape=partialRectangle;overflow=hidden;connectable=0;fillColor=none;top=0;left=0;bottom=0;right=0;align=left;spacingLeft=6;" vertex="1" parent="-PqnpieTWziDfPvVV64C-631">
          <mxGeometry x="30" width="270" height="30" as="geometry" />
        </mxCell>
        <mxCell id="-PqnpieTWziDfPvVV64C-634" value="" style="shape=partialRectangle;collapsible=0;dropTarget=0;pointerEvents=0;fillColor=none;points=[[0,0.5],[1,0.5]];portConstraint=eastwest;top=0;left=0;right=0;bottom=0;" vertex="1" parent="-PqnpieTWziDfPvVV64C-588">
          <mxGeometry y="480" width="300" height="30" as="geometry" />
        </mxCell>
        <mxCell id="-PqnpieTWziDfPvVV64C-635" value="" style="shape=partialRectangle;overflow=hidden;connectable=0;fillColor=none;top=0;left=0;bottom=0;right=0;" vertex="1" parent="-PqnpieTWziDfPvVV64C-634">
          <mxGeometry width="30" height="30" as="geometry" />
        </mxCell>
        <mxCell id="-PqnpieTWziDfPvVV64C-636" value="[PasswordSalt] [varchar](256) NULL" style="shape=partialRectangle;overflow=hidden;connectable=0;fillColor=none;top=0;left=0;bottom=0;right=0;align=left;spacingLeft=6;" vertex="1" parent="-PqnpieTWziDfPvVV64C-634">
          <mxGeometry x="30" width="270" height="30" as="geometry" />
        </mxCell>
        <mxCell id="-PqnpieTWziDfPvVV64C-637" value="" style="shape=partialRectangle;collapsible=0;dropTarget=0;pointerEvents=0;fillColor=none;points=[[0,0.5],[1,0.5]];portConstraint=eastwest;top=0;left=0;right=0;bottom=0;" vertex="1" parent="-PqnpieTWziDfPvVV64C-588">
          <mxGeometry y="510" width="300" height="30" as="geometry" />
        </mxCell>
        <mxCell id="-PqnpieTWziDfPvVV64C-638" value="" style="shape=partialRectangle;overflow=hidden;connectable=0;fillColor=none;top=0;left=0;bottom=0;right=0;" vertex="1" parent="-PqnpieTWziDfPvVV64C-637">
          <mxGeometry width="30" height="30" as="geometry" />
        </mxCell>
        <mxCell id="-PqnpieTWziDfPvVV64C-639" value="[ConfirmationCode] [varchar](256) NULL" style="shape=partialRectangle;overflow=hidden;connectable=0;fillColor=none;top=0;left=0;bottom=0;right=0;align=left;spacingLeft=6;" vertex="1" parent="-PqnpieTWziDfPvVV64C-637">
          <mxGeometry x="30" width="270" height="30" as="geometry" />
        </mxCell>
        <mxCell id="-PqnpieTWziDfPvVV64C-640" value="" style="shape=partialRectangle;collapsible=0;dropTarget=0;pointerEvents=0;fillColor=none;points=[[0,0.5],[1,0.5]];portConstraint=eastwest;top=0;left=0;right=0;bottom=0;" vertex="1" parent="-PqnpieTWziDfPvVV64C-588">
          <mxGeometry y="540" width="300" height="30" as="geometry" />
        </mxCell>
        <mxCell id="-PqnpieTWziDfPvVV64C-641" value="" style="shape=partialRectangle;overflow=hidden;connectable=0;fillColor=none;top=0;left=0;bottom=0;right=0;" vertex="1" parent="-PqnpieTWziDfPvVV64C-640">
          <mxGeometry width="30" height="30" as="geometry" />
        </mxCell>
        <mxCell id="-PqnpieTWziDfPvVV64C-642" value="[ConfirmationSent] [datetime] NULL" style="shape=partialRectangle;overflow=hidden;connectable=0;fillColor=none;top=0;left=0;bottom=0;right=0;align=left;spacingLeft=6;" vertex="1" parent="-PqnpieTWziDfPvVV64C-640">
          <mxGeometry x="30" width="270" height="30" as="geometry" />
        </mxCell>
        <mxCell id="-PqnpieTWziDfPvVV64C-643" value="" style="shape=partialRectangle;collapsible=0;dropTarget=0;pointerEvents=0;fillColor=none;points=[[0,0.5],[1,0.5]];portConstraint=eastwest;top=0;left=0;right=0;bottom=0;" vertex="1" parent="-PqnpieTWziDfPvVV64C-588">
          <mxGeometry y="570" width="300" height="30" as="geometry" />
        </mxCell>
        <mxCell id="-PqnpieTWziDfPvVV64C-644" value="" style="shape=partialRectangle;overflow=hidden;connectable=0;fillColor=none;top=0;left=0;bottom=0;right=0;" vertex="1" parent="-PqnpieTWziDfPvVV64C-643">
          <mxGeometry width="30" height="30" as="geometry" />
        </mxCell>
        <mxCell id="-PqnpieTWziDfPvVV64C-645" value="[ConfirmationReceived] [bit] NULL" style="shape=partialRectangle;overflow=hidden;connectable=0;fillColor=none;top=0;left=0;bottom=0;right=0;align=left;spacingLeft=6;" vertex="1" parent="-PqnpieTWziDfPvVV64C-643">
          <mxGeometry x="30" width="270" height="30" as="geometry" />
        </mxCell>
        <mxCell id="-PqnpieTWziDfPvVV64C-646" value="" style="shape=partialRectangle;collapsible=0;dropTarget=0;pointerEvents=0;fillColor=none;points=[[0,0.5],[1,0.5]];portConstraint=eastwest;top=0;left=0;right=0;bottom=0;" vertex="1" parent="-PqnpieTWziDfPvVV64C-588">
          <mxGeometry y="600" width="300" height="30" as="geometry" />
        </mxCell>
        <mxCell id="-PqnpieTWziDfPvVV64C-647" value="" style="shape=partialRectangle;overflow=hidden;connectable=0;fillColor=none;top=0;left=0;bottom=0;right=0;" vertex="1" parent="-PqnpieTWziDfPvVV64C-646">
          <mxGeometry width="30" height="30" as="geometry" />
        </mxCell>
        <mxCell id="-PqnpieTWziDfPvVV64C-648" value="[PasswordSent] [datetime] NULL" style="shape=partialRectangle;overflow=hidden;connectable=0;fillColor=none;top=0;left=0;bottom=0;right=0;align=left;spacingLeft=6;" vertex="1" parent="-PqnpieTWziDfPvVV64C-646">
          <mxGeometry x="30" width="270" height="30" as="geometry" />
        </mxCell>
        <mxCell id="-PqnpieTWziDfPvVV64C-649" value="" style="shape=partialRectangle;collapsible=0;dropTarget=0;pointerEvents=0;fillColor=none;points=[[0,0.5],[1,0.5]];portConstraint=eastwest;top=0;left=0;right=0;bottom=0;" vertex="1" parent="-PqnpieTWziDfPvVV64C-588">
          <mxGeometry y="630" width="300" height="30" as="geometry" />
        </mxCell>
        <mxCell id="-PqnpieTWziDfPvVV64C-650" value="" style="shape=partialRectangle;overflow=hidden;connectable=0;fillColor=none;top=0;left=0;bottom=0;right=0;" vertex="1" parent="-PqnpieTWziDfPvVV64C-649">
          <mxGeometry width="30" height="30" as="geometry" />
        </mxCell>
        <mxCell id="-PqnpieTWziDfPvVV64C-651" value="[ActiveStateCd] [char](1) NOT NULL" style="shape=partialRectangle;overflow=hidden;connectable=0;fillColor=none;top=0;left=0;bottom=0;right=0;align=left;spacingLeft=6;" vertex="1" parent="-PqnpieTWziDfPvVV64C-649">
          <mxGeometry x="30" width="270" height="30" as="geometry" />
        </mxCell>
        <mxCell id="-PqnpieTWziDfPvVV64C-652" value="" style="shape=partialRectangle;collapsible=0;dropTarget=0;pointerEvents=0;fillColor=none;points=[[0,0.5],[1,0.5]];portConstraint=eastwest;top=0;left=0;right=0;bottom=0;" vertex="1" parent="-PqnpieTWziDfPvVV64C-588">
          <mxGeometry y="660" width="300" height="30" as="geometry" />
        </mxCell>
        <mxCell id="-PqnpieTWziDfPvVV64C-653" value="" style="shape=partialRectangle;overflow=hidden;connectable=0;fillColor=none;top=0;left=0;bottom=0;right=0;" vertex="1" parent="-PqnpieTWziDfPvVV64C-652">
          <mxGeometry width="30" height="30" as="geometry" />
        </mxCell>
        <mxCell id="-PqnpieTWziDfPvVV64C-654" value="[LastStatusUpdate] [datetime] NULL" style="shape=partialRectangle;overflow=hidden;connectable=0;fillColor=none;top=0;left=0;bottom=0;right=0;align=left;spacingLeft=6;" vertex="1" parent="-PqnpieTWziDfPvVV64C-652">
          <mxGeometry x="30" width="270" height="30" as="geometry" />
        </mxCell>
        <mxCell id="-PqnpieTWziDfPvVV64C-655" value="" style="shape=partialRectangle;collapsible=0;dropTarget=0;pointerEvents=0;fillColor=none;points=[[0,0.5],[1,0.5]];portConstraint=eastwest;top=0;left=0;right=0;bottom=0;" vertex="1" parent="-PqnpieTWziDfPvVV64C-588">
          <mxGeometry y="690" width="300" height="30" as="geometry" />
        </mxCell>
        <mxCell id="-PqnpieTWziDfPvVV64C-656" value="" style="shape=partialRectangle;overflow=hidden;connectable=0;fillColor=none;top=0;left=0;bottom=0;right=0;" vertex="1" parent="-PqnpieTWziDfPvVV64C-655">
          <mxGeometry width="30" height="30" as="geometry" />
        </mxCell>
        <mxCell id="-PqnpieTWziDfPvVV64C-657" value="[LoginAttempts] [int] NULL" style="shape=partialRectangle;overflow=hidden;connectable=0;fillColor=none;top=0;left=0;bottom=0;right=0;align=left;spacingLeft=6;" vertex="1" parent="-PqnpieTWziDfPvVV64C-655">
          <mxGeometry x="30" width="270" height="30" as="geometry" />
        </mxCell>
        <mxCell id="-PqnpieTWziDfPvVV64C-658" value="" style="shape=partialRectangle;collapsible=0;dropTarget=0;pointerEvents=0;fillColor=none;points=[[0,0.5],[1,0.5]];portConstraint=eastwest;top=0;left=0;right=0;bottom=0;" vertex="1" parent="-PqnpieTWziDfPvVV64C-588">
          <mxGeometry y="720" width="300" height="30" as="geometry" />
        </mxCell>
        <mxCell id="-PqnpieTWziDfPvVV64C-659" value="" style="shape=partialRectangle;overflow=hidden;connectable=0;fillColor=none;top=0;left=0;bottom=0;right=0;" vertex="1" parent="-PqnpieTWziDfPvVV64C-658">
          <mxGeometry width="30" height="30" as="geometry" />
        </mxCell>
        <mxCell id="-PqnpieTWziDfPvVV64C-660" value="[LastModifiedBySubmCd] [char](10) NULL" style="shape=partialRectangle;overflow=hidden;connectable=0;fillColor=none;top=0;left=0;bottom=0;right=0;align=left;spacingLeft=6;" vertex="1" parent="-PqnpieTWziDfPvVV64C-658">
          <mxGeometry x="30" width="270" height="30" as="geometry" />
        </mxCell>
        <mxCell id="-PqnpieTWziDfPvVV64C-661" value="" style="shape=partialRectangle;collapsible=0;dropTarget=0;pointerEvents=0;fillColor=none;points=[[0,0.5],[1,0.5]];portConstraint=eastwest;top=0;left=0;right=0;bottom=0;" vertex="1" parent="-PqnpieTWziDfPvVV64C-588">
          <mxGeometry y="750" width="300" height="30" as="geometry" />
        </mxCell>
        <mxCell id="-PqnpieTWziDfPvVV64C-662" value="" style="shape=partialRectangle;overflow=hidden;connectable=0;fillColor=none;top=0;left=0;bottom=0;right=0;" vertex="1" parent="-PqnpieTWziDfPvVV64C-661">
          <mxGeometry width="30" height="30" as="geometry" />
        </mxCell>
        <mxCell id="-PqnpieTWziDfPvVV64C-663" value="[LastModified] [datetime] NULL" style="shape=partialRectangle;overflow=hidden;connectable=0;fillColor=none;top=0;left=0;bottom=0;right=0;align=left;spacingLeft=6;" vertex="1" parent="-PqnpieTWziDfPvVV64C-661">
          <mxGeometry x="30" width="270" height="30" as="geometry" />
        </mxCell>
        <mxCell id="-PqnpieTWziDfPvVV64C-664" value="" style="shape=partialRectangle;collapsible=0;dropTarget=0;pointerEvents=0;fillColor=none;points=[[0,0.5],[1,0.5]];portConstraint=eastwest;top=0;left=0;right=0;bottom=0;" vertex="1" parent="-PqnpieTWziDfPvVV64C-588">
          <mxGeometry y="780" width="300" height="30" as="geometry" />
        </mxCell>
        <mxCell id="-PqnpieTWziDfPvVV64C-665" value="" style="shape=partialRectangle;overflow=hidden;connectable=0;fillColor=none;top=0;left=0;bottom=0;right=0;" vertex="1" parent="-PqnpieTWziDfPvVV64C-664">
          <mxGeometry width="30" height="30" as="geometry" />
        </mxCell>
        <mxCell id="-PqnpieTWziDfPvVV64C-666" value="[PKIExpiration] [datetime] NULL" style="shape=partialRectangle;overflow=hidden;connectable=0;fillColor=none;top=0;left=0;bottom=0;right=0;align=left;spacingLeft=6;" vertex="1" parent="-PqnpieTWziDfPvVV64C-664">
          <mxGeometry x="30" width="270" height="30" as="geometry" />
        </mxCell>
        <mxCell id="-PqnpieTWziDfPvVV64C-667" value="" style="shape=partialRectangle;collapsible=0;dropTarget=0;pointerEvents=0;fillColor=none;points=[[0,0.5],[1,0.5]];portConstraint=eastwest;top=0;left=0;right=0;bottom=0;" vertex="1" parent="-PqnpieTWziDfPvVV64C-588">
          <mxGeometry y="810" width="300" height="30" as="geometry" />
        </mxCell>
        <mxCell id="-PqnpieTWziDfPvVV64C-668" value="" style="shape=partialRectangle;overflow=hidden;connectable=0;fillColor=none;top=0;left=0;bottom=0;right=0;" vertex="1" parent="-PqnpieTWziDfPvVV64C-667">
          <mxGeometry width="30" height="30" as="geometry" />
        </mxCell>
        <mxCell id="-PqnpieTWziDfPvVV64C-669" value="[HasAcceptedNewTermsOfRef] [bit] NOT NULL" style="shape=partialRectangle;overflow=hidden;connectable=0;fillColor=none;top=0;left=0;bottom=0;right=0;align=left;spacingLeft=6;" vertex="1" parent="-PqnpieTWziDfPvVV64C-667">
          <mxGeometry x="30" width="270" height="30" as="geometry" />
        </mxCell>
        <mxCell id="-PqnpieTWziDfPvVV64C-670" value="" style="shape=partialRectangle;collapsible=0;dropTarget=0;pointerEvents=0;fillColor=none;points=[[0,0.5],[1,0.5]];portConstraint=eastwest;top=0;left=0;right=0;bottom=1;" vertex="1" parent="-PqnpieTWziDfPvVV64C-588">
          <mxGeometry y="840" width="300" height="30" as="geometry" />
        </mxCell>
        <mxCell id="-PqnpieTWziDfPvVV64C-671" value="PK" style="shape=partialRectangle;overflow=hidden;connectable=0;fillColor=none;top=0;left=0;bottom=0;right=0;fontStyle=1;" vertex="1" parent="-PqnpieTWziDfPvVV64C-670">
          <mxGeometry width="30" height="30" as="geometry" />
        </mxCell>
        <mxCell id="-PqnpieTWziDfPvVV64C-672" value="CONSTRAINT [PK_SubmCd]  CLUSTERED" style="shape=partialRectangle;overflow=hidden;connectable=0;fillColor=none;top=0;left=0;bottom=0;right=0;align=left;spacingLeft=6;fontStyle=5;" vertex="1" parent="-PqnpieTWziDfPvVV64C-670">
          <mxGeometry x="30" width="270" height="30" as="geometry" />
        </mxCell>
        <mxCell id="-PqnpieTWziDfPvVV64C-673" value="" style="shape=partialRectangle;collapsible=0;dropTarget=0;pointerEvents=0;fillColor=none;points=[[0,0.5],[1,0.5]];portConstraint=eastwest;top=0;left=0;right=0;bottom=0;" vertex="1" parent="-PqnpieTWziDfPvVV64C-588">
          <mxGeometry y="870" width="300" height="30" as="geometry" />
        </mxCell>
        <mxCell id="-PqnpieTWziDfPvVV64C-674" value="" style="shape=partialRectangle;overflow=hidden;connectable=0;fillColor=none;top=0;left=0;bottom=0;right=0;" vertex="1" parent="-PqnpieTWziDfPvVV64C-673">
          <mxGeometry width="30" height="30" as="geometry" />
        </mxCell>
        <mxCell id="-PqnpieTWziDfPvVV64C-675" value="[SubmCd] ASC" style="shape=partialRectangle;overflow=hidden;connectable=0;fillColor=none;top=0;left=0;bottom=0;right=0;align=left;spacingLeft=6;" vertex="1" parent="-PqnpieTWziDfPvVV64C-673">
          <mxGeometry x="30" width="270" height="30" as="geometry" />
        </mxCell>
        <mxCell id="-PqnpieTWziDfPvVV64C-677" style="edgeStyle=orthogonalEdgeStyle;rounded=0;orthogonalLoop=1;jettySize=auto;html=1;" edge="1" parent="1" source="-PqnpieTWziDfPvVV64C-175" target="-PqnpieTWziDfPvVV64C-131">
          <mxGeometry relative="1" as="geometry">
            <Array as="points">
              <mxPoint x="60" y="1265" />
              <mxPoint x="60" y="875" />
            </Array>
          </mxGeometry>
        </mxCell>
        <mxCell id="-PqnpieTWziDfPvVV64C-678" style="edgeStyle=orthogonalEdgeStyle;rounded=0;orthogonalLoop=1;jettySize=auto;html=1;" edge="1" parent="1" source="-PqnpieTWziDfPvVV64C-31" target="-PqnpieTWziDfPvVV64C-359">
          <mxGeometry relative="1" as="geometry" />
        </mxCell>
        <mxCell id="-PqnpieTWziDfPvVV64C-679" style="edgeStyle=orthogonalEdgeStyle;rounded=0;orthogonalLoop=1;jettySize=auto;html=1;" edge="1" parent="1" source="-PqnpieTWziDfPvVV64C-268" target="-PqnpieTWziDfPvVV64C-34">
          <mxGeometry relative="1" as="geometry" />
        </mxCell>
        <mxCell id="-PqnpieTWziDfPvVV64C-680" style="edgeStyle=orthogonalEdgeStyle;rounded=0;orthogonalLoop=1;jettySize=auto;html=1;" edge="1" parent="1" source="-PqnpieTWziDfPvVV64C-356" target="-PqnpieTWziDfPvVV64C-212">
          <mxGeometry relative="1" as="geometry" />
        </mxCell>
        <mxCell id="-PqnpieTWziDfPvVV64C-681" style="edgeStyle=orthogonalEdgeStyle;rounded=0;orthogonalLoop=1;jettySize=auto;html=1;" edge="1" parent="1" source="-PqnpieTWziDfPvVV64C-356" target="-PqnpieTWziDfPvVV64C-128">
          <mxGeometry relative="1" as="geometry">
            <Array as="points">
              <mxPoint x="540" y="175" />
              <mxPoint x="540" y="845" />
            </Array>
          </mxGeometry>
        </mxCell>
        <mxCell id="-PqnpieTWziDfPvVV64C-683" style="edgeStyle=orthogonalEdgeStyle;rounded=0;orthogonalLoop=1;jettySize=auto;html=1;" edge="1" parent="1" source="-PqnpieTWziDfPvVV64C-589" target="-PqnpieTWziDfPvVV64C-419">
          <mxGeometry relative="1" as="geometry">
            <Array as="points">
              <mxPoint x="940" y="1155" />
              <mxPoint x="940" y="805" />
            </Array>
          </mxGeometry>
        </mxCell>
        <mxCell id="-PqnpieTWziDfPvVV64C-684" style="edgeStyle=orthogonalEdgeStyle;rounded=0;orthogonalLoop=1;jettySize=auto;html=1;" edge="1" parent="1" source="-PqnpieTWziDfPvVV64C-589" target="-PqnpieTWziDfPvVV64C-425">
          <mxGeometry relative="1" as="geometry">
            <Array as="points">
              <mxPoint x="940" y="1155" />
              <mxPoint x="940" y="865" />
            </Array>
          </mxGeometry>
        </mxCell>
        <mxCell id="-PqnpieTWziDfPvVV64C-685" style="edgeStyle=orthogonalEdgeStyle;rounded=0;orthogonalLoop=1;jettySize=auto;html=1;" edge="1" parent="1" source="-PqnpieTWziDfPvVV64C-589" target="-PqnpieTWziDfPvVV64C-209">
          <mxGeometry relative="1" as="geometry">
            <Array as="points">
              <mxPoint x="480" y="1155" />
              <mxPoint x="480" y="455" />
            </Array>
          </mxGeometry>
        </mxCell>
        <mxCell id="-PqnpieTWziDfPvVV64C-687" style="edgeStyle=orthogonalEdgeStyle;rounded=0;orthogonalLoop=1;jettySize=auto;html=1;" edge="1" parent="1" source="-PqnpieTWziDfPvVV64C-589" target="-PqnpieTWziDfPvVV64C-149">
          <mxGeometry relative="1" as="geometry">
            <Array as="points">
              <mxPoint x="480" y="1155" />
              <mxPoint x="480" y="1055" />
            </Array>
          </mxGeometry>
        </mxCell>
        <mxCell id="-PqnpieTWziDfPvVV64C-688" style="edgeStyle=orthogonalEdgeStyle;rounded=0;orthogonalLoop=1;jettySize=auto;html=1;" edge="1" parent="1" source="-PqnpieTWziDfPvVV64C-589" target="-PqnpieTWziDfPvVV64C-143">
          <mxGeometry relative="1" as="geometry">
            <Array as="points">
              <mxPoint x="480" y="1155" />
              <mxPoint x="480" y="995" />
            </Array>
          </mxGeometry>
        </mxCell>
      </root>
    </mxGraphModel>
  </diagram>
</mxfile>
